<svg xmlns="http://www.w3.org/2000/svg" width="400" height="400"><g fill-rule="evenodd"><path fill="#f7b774" d="M205 7.019c-.22.086-2.38.347-4.8.58-11.692 1.127-19.646 2.791-25.884 5.416-3.404 1.432-12.039 6.12-12.249 6.649-.074.185-.306.336-.516.336-2.067 0-10.934 7.677-17.351 15.023-5.403 6.185-6.374 7.428-15.131 19.377-5.105 6.966-9.636 16.53-13.72 28.959-1.453 4.423-2.788 8.401-2.968 8.841s-.421 1.34-.536 2-.397 2.055-.627 3.1c-1.097 4.985-1.278 5.847-1.666 7.9-2.18 11.54-2.744 17.043-2.728 26.6.017 9.867.781 17.021 2.776 26 .22.99.566 2.565.77 3.5.203.935.563 2.375.8 3.2.236.825.62 2.175.853 3s.592 2.085.8 2.8c.207.715.534 1.885.726 2.6 1.511 5.625 8.184 18.751 11.185 22 1.738 1.882 2.066 1.504 2.066-2.382 0-4.213.6-10.904 1.464-16.318.951-5.963 1.143-6.909 2.116-10.4.49-1.76 1.066-3.83 1.278-4.6.213-.77.539-1.94.724-2.6 2.717-9.689 8.177-25.236 10.818-30.8a88 88 0 0 0 2-4.6c2.105-5.383 11.201-20.713 15.769-26.581 5.067-6.506 15.814-17.782 27.631-28.988 7.981-7.568 27.762-20.35 38.6-24.943.77-.326 2.03-.87 2.8-1.209 6.145-2.705 16.306-6.16 21.2-7.209.55-.118 1.72-.414 2.6-.657s2.5-.595 3.6-.782 3.53-.62 5.4-.963c8.97-1.645 18.233-2.447 24.525-2.123 2.681.138 6.785.364 9.12.503 4.53.269 5.397-.019 3.994-1.326-2.597-2.419-11.177-6.381-25.439-11.746-14.518-5.462-18.024-6.524-24.9-7.545-7.013-1.042-8.578-1.233-13.3-1.63-2.75-.232-6.966-.596-9.369-.811-4.145-.37-21.58-.503-22.431-.171m-79.4 15.856c-.55.231-1.36.557-1.8.722-1.628.613-4.832 2.189-5.849 2.876-.578.39-2.468 1.458-4.2 2.372-1.733.915-3.871 2.158-4.751 2.762-2.935 2.016-6.221 4.184-7.566 4.993a34 34 0 0 0-2.621 1.789c-.709.545-2.342 1.715-3.627 2.6-4.371 3.012-13.383 9.6-14.236 10.407-.468.442-3.23 2.874-6.138 5.404C60.83 68.964 53.81 79.333 49.222 94.6c-1.035 3.442-3.786 17.553-4.836 24.8-2.551 17.604-2.937 32.236-1.155 43.8 3.159 20.512 8.596 37.152 16.01 49 2.364 3.777 7.527 11.457 7.933 11.8.131.11 1.315 1.628 2.632 3.373 7.246 9.603 24.519 23.854 35.432 29.232 2.069 1.02 4.122 2.051 4.562 2.292 4.997 2.735 8.524 4.161 18.6 7.521 15.05 5.019 19.444 5.919 29.7 6.086 7.225.118 7.236.078 1.3-4.607a1505 1505 0 0 0-6.785-5.297c-11.152-8.614-23.732-21.251-29.615-29.749a163 163 0 0 0-3.748-5.17c-3.887-5.072-6.43-9.261-11.977-19.735-1.123-2.119-2.553-4.729-3.177-5.8-1.093-1.872-1.985-3.692-3.698-7.546l-1.6-3.596c-.44-.987-.8-1.946-.8-2.131s-.438-1.414-.974-2.732c-1.584-3.899-5.211-15.71-6.861-22.341-.328-1.32-.756-3.03-.951-3.8-.714-2.82-1.815-9.042-2.373-13.4-1.418-11.07-.495-32.607 1.91-44.6 1.83-9.123 2.287-10.88 5.931-22.8C97.964 68.463 107.161 49.519 110.8 46c.114-.11 1.522-1.879 3.129-3.932s3.336-4.212 3.843-4.8c.508-.587 2.43-2.868 4.271-5.068 1.842-2.2 4.116-4.77 5.053-5.711 2.934-2.945 2.041-5.103-1.496-3.614M279.133 50.6c-.11.11-2.705.373-5.766.585-5.3.367-9.494.832-12.567 1.391-6.317 1.15-6.806 1.267-12.8 3.041-7.297 2.161-12.137 4.195-17.11 7.189-.721.434-3.061 1.72-5.2 2.858s-4.642 2.58-5.562 3.203S218.347 70 218.215 70c-1.166 0-13.895 9.554-19.187 14.4-5.124 4.693-14.525 14.354-16.362 16.816a536 536 0 0 1-2.797 3.719c-.802 1.048-1.443 2.1-3.575 5.865-9.366 16.545-10.955 20.038-10.224 22.475.565 1.887.602 1.886 3.085-.077 2.87-2.269 21.534-11.598 23.203-11.598.201 0 1.058-.348 1.904-.772 5.881-2.955 15.699-7.228 16.604-7.228.171 0 1.351-.469 2.622-1.043 3.633-1.639 4.6-2.062 6.312-2.756 1.506-.611 7.507-2.326 10.6-3.029.77-.175 2.12-.516 3-.756s2.41-.603 3.4-.806 2.61-.562 3.6-.798c1.679-.4 3.343-.695 9.4-1.666 1.32-.211 7.17-.486 13-.611 12.814-.274 17.991.217 28 2.657.77.187 3.2.741 5.4 1.229 5.566 1.236 9.306 2.297 11.296 3.205.932.426 1.819.774 1.97.774.265 0 6.89 3.317 16.534 8.278 2.53 1.301 5.59 3.006 6.8 3.789s3.91 2.467 6 3.744 4.25 2.717 4.8 3.201c.55.485 1.3 1.04 1.666 1.234.366.195 1.446 1.08 2.4 1.968a61 61 0 0 0 3.534 3c.99.762 1.89 1.476 2 1.586s1.64 1.456 3.4 2.991c6.021 5.251 15.916 15.457 19.01 19.609.983 1.32 1.892 2.49 2.019 2.6s1.019 1.37 1.982 2.8c.962 1.43 2.074 2.949 2.47 3.375.395.427.719.99.719 1.251 0 .262.258.69.573.951.315.262 1.7 2.399 3.078 4.749 1.378 2.351 3.156 5.264 3.951 6.474 1.684 2.564 3.55 6.127 6.914 13.2.776 1.631.904.738.258-1.8-.224-.88-.568-5.2-.765-9.6-.324-7.238-.778-10.864-2.03-16.2-.233-.99-.593-2.565-.801-3.5l-.804-3.6a55 55 0 0 1-.642-3.403c-.119-.826-.377-1.602-.574-1.723-.197-.122-.358-.742-.358-1.379 0-.636-.16-1.571-.356-2.076s-.769-2.269-1.272-3.919c-.504-1.65-1.064-3.171-1.244-3.38s-.328-.706-.328-1.105-.181-1.038-.401-1.42-1.133-2.945-2.027-5.695c-2.257-6.94-3.256-9.419-6.207-15.4-2.629-5.331-3.287-6.527-6.189-11.264a217 217 0 0 1-2.406-4.014c-.402-.702-1.698-2.592-2.88-4.2a177 177 0 0 1-3.88-5.522c-5.962-8.95-14.549-19.085-21.01-24.795-1.32-1.166-3.03-2.68-3.8-3.363-8.808-7.817-15.311-11.082-28-14.058-1.43-.336-3.23-.767-4-.958-1.332-.33-3.948-.719-10.916-1.622-3.156-.409-17.183-.572-17.551-.204M246 127.609c-.99.173-2.34.537-3 .809l-1.2.495 1.52.341c1.241.279 1.828.177 3.2-.556.924-.494 2.22-1.009 2.88-1.145 1.919-.396-1.101-.346-3.4.056m-47.252 14.176c-.102.102-1.707.35-3.566.55-7.473.807-21.05 6.235-25.182 10.067-.99.918-2.8 2.356-4.021 3.195s-2.697 2.244-3.277 3.121-1.863 2.351-2.85 3.276-2.237 2.61-2.779 3.744-1.445 2.592-2.008 3.24c-1.49 1.713-3.676 6.291-4.691 9.822-.285.99-.628 1.98-.763 2.2-4.217 6.899-4.627 28.1-.772 39.88 1.892 5.778 11.126 20.94 14.935 24.52 6.549 6.156 13.684 11.649 17.593 13.545 7.152 3.468 9.359 4.043 21.139 5.509 6.677.831 15.738-.545 21.866-3.319 26.893-12.175 42.684-35.735 42.584-63.535-.039-10.977-3.421-23.177-7.91-28.532-.465-.555-1.681-2.147-2.701-3.538-8.432-11.495-21.967-20.006-37.145-23.356-2.46-.543-19.965-.876-20.452-.389m13.794 23.648c5.552.587 14.203 5.978 17.551 10.936.68 1.007 2.163 2.821 3.296 4.031 7.58 8.099 10.247 17.585 7.982 28.4-.346 1.65-.726 3.497-.846 4.105-.119.608-.376 1.203-.571 1.324-.195.12-.354.489-.354.82 0 1.915-4.824 10.204-7.688 13.209-5.142 5.396-10.782 8.667-17.512 10.155-1.21.268-2.722.644-3.36.837-3.811 1.151-12.166.211-18.793-2.114-7.673-2.692-17.064-11.647-20.617-19.661-2.235-5.039-3.119-16.436-1.681-21.675 6.128-22.336 20.646-32.687 42.593-30.367m-10.927 23.781c-1.201.432-2.227.786-2.279.786-.527 0-5.309 4.528-6.631 6.278L191 198.536v4.032c0 10.729 10.451 18.986 19.447 15.365 6.025-2.425 8.451-6.115 8.502-12.933.044-5.771-.607-7.004-6.149-11.651-6.375-5.345-7.087-5.608-11.185-4.135"/><path fill="#39ece1" d="M22.4 118.372c0 .204-1.051 1.959-2.336 3.9-2.995 4.525-5.659 9.385-6.11 11.146-.195.76-.524 1.967-.731 2.682-1.653 5.691-3.105 11.813-3.82 16.1-.147.88-.414 1.96-.593 2.4s-.534 1.88-.787 3.2a577 577 0 0 1-.824 4.2c-.471 2.34-1.442 10.878-2.456 21.6-.715 7.549-.603 27.852.187 34.2.903 7.25 2.383 16.014 3.444 20.4.213.88.57 2.41.794 3.4 1.19 5.259 2.906 11.387 4.032 14.4.699 1.87 1.413 3.85 1.587 4.4.612 1.94 4.308 10.47 9.532 22 1.198 2.644 5.173 8.204 8.721 12.2 9.118 10.266 15.362 16.462 20.36 20.203 2.2 1.647 4.349 3.31 4.775 3.696.427.385 1.012.701 1.3.701s.525.15.525.332.495.587 1.1.897 1.973 1.164 3.039 1.897c2.033 1.4 6.931 4.319 10.661 6.355 2.079 1.135 3.153 1.741 6.7 3.782 5.217 3.001 12.252 6.109 20.9 9.233 1.21.437 2.74 1.031 3.4 1.32 5.38 2.352 12.666 3.822 26.8 5.405 4.864.545 26.031.278 29.8-.376 1.43-.248 3.59-.601 4.8-.785 4.041-.614 11.228-2.433 16-4.049 16.492-5.584 22.871-8.843 35.2-17.984l4.081-3.026c8.848-6.56 14.869-12.623 21.454-21.601 1.129-1.54 2.2-2.98 2.38-3.2.755-.923 4.467-6.566 5.657-8.6.708-1.21 1.993-3.37 2.855-4.8 2.1-3.484 4.506-8.492 5.573-11.6.264-.77.629-1.76.81-2.2s.902-2.69 1.602-5 1.458-4.701 1.684-5.313c.67-1.811.335-1.608-4.876 2.953-2.74 2.398-5.125 4.36-5.3 4.36-.176 0-.636.315-1.022.7s-2.096 1.568-3.8 2.628-3.322 2.15-3.598 2.42c-4.199 4.125-14.518 9.98-22.3 12.652-.77.264-1.76.618-2.2.785s-1.52.521-2.4.786-1.96.63-2.4.812c-2.337.964-6.904 2.206-10.4 2.829-4.178.745-6.051 1.136-7.6 1.588-.88.257-2.59.616-3.8.798s-3.516.616-5.125.966c-6.127 1.331-27.612 1.24-36.475-.154-4.257-.67-7.418-1.21-9.2-1.573-.99-.202-2.7-.545-3.8-.762-5.225-1.034-21.299-5.962-25.63-7.858-7.443-3.26-24.511-12.5-24.903-13.483a.56.56 0 0 0-.48-.334c-.296 0-3.329-1.909-4.587-2.887-.22-.171-2.47-1.868-5-3.771s-6.033-4.738-7.785-6.301L67.288 253c-.737-.66-2.901-3-4.808-5.2s-3.8-4.36-4.207-4.8-2.3-2.836-4.207-5.324c-9.125-11.912-8.152-10.491-13.474-19.676-2.679-4.624-3.975-7.184-5.77-11.4-.187-.44-.614-1.43-.948-2.2-.335-.77-.91-2.21-1.278-3.2-.369-.99-.822-2.16-1.007-2.6s-.717-1.97-1.182-3.4-1.016-2.913-1.226-3.295-.381-1.046-.381-1.476-.159-.88-.354-1c-.195-.121-.45-.716-.567-1.324a36 36 0 0 0-.614-2.505c-.574-2.003-1.497-5.67-2.416-9.6-.714-3.049-1.152-5.53-2.459-13.9a297 297 0 0 0-.87-5.2c-.636-3.579-.622-24.401.019-28.7.642-4.305 1.268-8.204 1.492-9.3.101-.495.001-.9-.223-.9-.225 0-.408.167-.408.372m125.029 68.257c-.148.586-.191 1.143-.097 1.237.095.094.292-.308.439-.895.148-.586.191-1.143.097-1.237-.095-.094-.292.308-.439.895M91.6 360.386c0 .63 5.15 5.614 5.801 5.614.329 0 .599.18.599.4s.191.4.423.4c.233 0 1.088.525 1.9 1.168 1.791 1.415 10.799 6.028 11.777 6.03.385.001.7.174.7.383 0 .435 2.764 1.288 3.233.998.17-.104.524-.842.787-1.639s.906-2.079 1.429-2.85.953-1.602.956-1.846.11-.831.237-1.304c.193-.722.016-.906-1.106-1.146-.735-.158-1.516-.425-1.736-.595s-1.12-.408-2-.528-2.5-.421-3.6-.667-2.63-.54-3.4-.651-1.76-.35-2.2-.53-2.15-.734-3.8-1.231a228 228 0 0 1-5.227-1.647c-2.402-.804-4.773-.982-4.773-.359"/><path fill="#1b212e" d="M178.5.273c-2.26.085-4.1.328-4.1.541s-1.339.386-3 .386c-1.733 0-3 .169-3 .4 0 .22-.979.4-2.176.4s-2.288.18-2.424.4-1.126.4-2.2.4-2.064.18-2.2.4-.856.4-1.6.4-1.464.18-1.6.4-.944.4-1.795.4-1.818.27-2.148.6-1.243.6-2.028.6c-.786 0-1.429.18-1.429.4s-.63.4-1.4.4-1.4.18-1.4.4-.72.4-1.6.4-1.6.18-1.6.4-.452.4-1.005.4-1.318.162-1.7.361-1.505.576-2.495.839-2.113.64-2.495.839a3.8 3.8 0 0 1-1.476.361c-.43 0-.893.18-1.029.4s-.687.4-1.224.4-.976.18-.976.4-.54.4-1.2.4-1.2.18-1.2.4-.439.4-.976.4-1.088.18-1.224.4-.597.4-1.024.4-.776.18-.776.4-.54.4-1.2.4-1.2.18-1.2.4-.36.4-.8.4-.8.18-.8.4-.349.4-.776.4-.888.18-1.024.4-.597.4-1.024.4-.776.18-.776.4-.217.4-.482.4c-.759 0-5.118 2.104-5.118 2.47 0 .182-.36.33-.8.33s-.8.18-.8.4-.36.4-.8.4-.8.18-.8.4-.36.4-.8.4-.8.18-.8.4-.36.4-.8.4-.8.18-.8.4-.27.4-.6.4-.6.18-.6.4-.36.4-.8.4-.8.18-.8.4-.32.4-.712.4-.971.36-1.288.8-.897.8-1.288.8c-.392 0-.712.18-.712.4s-.32.4-.712.4-.971.36-1.288.8-.897.8-1.288.8c-.392 0-.712.18-.712.4s-.36.4-.8.4-.8.15-.8.332-.495.588-1.1.9-1.449.883-1.875 1.268c-.427.385-.987.7-1.244.7-.258 0-.807.45-1.22 1s-1.028 1-1.368 1c-.339 0-.876.36-1.193.8s-.78.8-1.029.8-1.017.54-1.708 1.2-1.455 1.2-1.699 1.2-.92.495-1.504 1.1c-.583.605-1.576 1.367-2.208 1.693-.631.326-1.846 1.271-2.7 2.1s-1.688 1.512-1.852 1.518c-.354.013-3.3 2.703-3.3 3.013 0 .348-1.935 2.176-2.303 2.176C64.685 50.8 50 65.439 50 66.448c0 .465-.998 1.552-1.425 1.552-.319 0-1.377 1.156-2.92 3.191a37 37 0 0 1-2.074 2.474c-.56.596-1.28 1.59-1.6 2.209-.319.619-1.076 1.603-1.681 2.186-.605.584-1.1 1.277-1.1 1.54s-.54.983-1.2 1.6-1.2 1.369-1.2 1.672-.36.811-.8 1.128-.8.854-.8 1.193-.45.955-1 1.368-1 .974-1 1.246-.273.722-.607.999-.895 1.109-1.246 1.849S30.549 92 30.354 92s-.354.32-.354.712-.36.971-.8 1.288-.8.897-.8 1.288c0 .392-.18.712-.4.712s-.4.32-.4.712-.36.971-.8 1.288-.8.897-.8 1.288c0 .392-.18.712-.4.712s-.4.36-.4.8-.18.8-.4.8-.4.36-.4.8-.18.8-.4.8-.4.27-.4.6-.18.6-.4.6-.4.36-.4.8-.18.8-.4.8-.4.36-.4.8-.18.8-.4.8-.4.36-.4.8-.18.8-.4.8-.4.36-.4.8-.142.8-.316.8c-.299 0-2.135 3.446-2.983 5.6-.217.55-.553 1.313-.748 1.695s-.353.967-.353 1.3-.18.605-.4.605-.4.36-.4.8-.18.8-.4.8-.4.54-.4 1.2-.18 1.2-.4 1.2-.4.36-.4.8-.18.8-.4.8-.4.54-.4 1.2-.18 1.2-.4 1.2-.4.349-.4.776-.18.888-.4 1.024-.4.676-.4 1.2-.18 1.064-.4 1.2-.4.777-.4 1.424-.18 1.176-.4 1.176-.4.54-.4 1.2-.18 1.2-.4 1.2-.4.54-.4 1.2-.18 1.2-.4 1.2-.4.54-.4 1.2-.18 1.2-.4 1.2-.4.72-.4 1.6-.18 1.6-.4 1.6-.4.63-.4 1.4-.18 1.4-.4 1.4-.4.643-.4 1.429c0 .785-.27 1.698-.6 2.028s-.6 1.207-.6 1.948-.18 1.459-.4 1.595-.4.946-.4 1.8-.18 1.664-.4 1.8-.4 1.137-.4 2.224-.18 1.976-.4 1.976c-.222 0-.4 1.067-.4 2.4s-.178 2.4-.4 2.4c-.227 0-.4 1.173-.4 2.72 0 1.643-.198 2.918-.5 3.22-.729.73-.729 51.391 0 52.12.302.302.5 1.577.5 3.22 0 1.547.173 2.72.4 2.72.222 0 .4 1.067.4 2.4s.178 2.4.4 2.4c.22 0 .4.979.4 2.176s.161 2.276.358 2.398c.338.209.465.796 1.077 4.956.14.951.505 1.825.81 1.943.357.137.555.84.555 1.97 0 .966.18 1.757.4 1.757s.4.72.4 1.6.18 1.6.4 1.6.4.54.4 1.2.18 1.2.4 1.2.4.72.4 1.6.18 1.6.4 1.6.4.54.4 1.2.18 1.2.4 1.2.4.54.4 1.2.18 1.2.4 1.2.4.54.4 1.2.18 1.2.4 1.2.4.439.4.976.18 1.088.4 1.224.4.687.4 1.224.18.976.4.976.4.439.4.976.18 1.088.4 1.224.4.597.4 1.024.18.776.4.776.4.36.4.8.18.8.4.8.4.54.4 1.2.18 1.2.4 1.2.4.349.4.776.18.888.4 1.024.4.597.4 1.024.18.776.4.776.4.217.4.482c0 .759 2.104 5.118 2.47 5.118.182 0 .33.36.33.8s.18.8.4.8.4.36.4.8.146.8.325.8.573.63.875 1.4.696 1.4.875 1.4.325.36.325.8.18.8.4.8.4.36.4.8.18.8.4.8.4.36.4.8.18.8.4.8.4.236.4.525c0 .288.36.911.8 1.383s.8 1.136.8 1.475.18.617.4.617.4.32.4.712.36.971.8 1.288.8.897.8 1.288c0 .392.18.712.4.712s.4.27.4.6.18.6.4.6.4.236.4.525c0 .288.36.911.8 1.383s.8 1.021.8 1.219.45.699 1 1.112 1 1.028 1 1.368c0 .339.36.876.8 1.193s.8.825.8 1.128.54 1.055 1.2 1.672 1.2 1.409 1.2 1.76c0 .352.18.64.4.64s.4.23.4.512c0 .281.36.771.8 1.088s.8.807.8 1.088.18.512.4.512.4.198.4.44c0 .241.496.916 1.101 1.5.606.583 1.576 1.69 2.155 2.46 1.52 2.02 2.596 3.2 2.919 3.2.43 0 1.425 1.089 1.425 1.558 0 1.181 14.624 15.642 15.818 15.642.32 0 .582.198.582.441 0 .51 5.202 5.559 5.728 5.559.193 0 .855.54 1.472 1.2s1.319 1.2 1.56 1.2.44.18.44.4.27.4.6.4 1.341.72 2.248 1.6 1.857 1.6 2.112 1.6.723.36 1.04.8.854.8 1.193.8.955.45 1.368 1 .93 1 1.148 1 .689.315 1.045.7c.737.796 2.704 2.041 3.746 2.371.385.122.7.381.7.576s.27.353.6.353.6.18.6.4.278.4.617.4 1.003.36 1.475.8 1.095.8 1.383.8.525.18.525.4.278.4.617.4 1.003.36 1.475.8 1.095.8 1.383.8.525.18.525.4.36.4.8.4.8.18.8.4.36.4.8.4.8.18.8.4.27.4.6.4.6.18.6.4.36.4.8.4.8.18.8.4.36.4.8.4.8.143.8.318c0 .423 7.297 4.082 8.14 4.082.363 0 .66.18.66.4s.349.4.776.4.888.18 1.024.4.597.4 1.024.4.776.18.776.4.36.4.8.4.8.18.8.4.54.4 1.2.4 1.2.18 1.2.4.36.4.8.4.8.18.8.4.54.4 1.2.4 1.2.18 1.2.4.54.4 1.2.4 1.2.18 1.2.4.45.4 1 .4 1 .18 1 .4.54.4 1.2.4 1.2.18 1.2.4.54.4 1.2.4 1.2.18 1.2.4.54.4 1.2.4 1.2.18 1.2.4.701.4 1.557.4c.956 0 1.639.213 1.769.553.117.304.856.664 1.643.8l2.835.491c.772.135 1.502.405 1.623.6.121.196.829.356 1.573.356s1.464.18 1.6.4.946.4 1.8.4 1.664.18 1.8.4.946.4 1.8.4 1.664.18 1.8.4 1.137.4 2.224.4 1.976.18 1.976.4.889.4 1.976.4 2.088.18 2.224.4 1.551.4 3.144.4c1.783 0 3.088.192 3.396.5.731.731 50.516.731 50.76 0 .115-.344 1.156-.5 3.333-.5 1.845 0 3.167-.167 3.167-.4 0-.22.979-.4 2.176-.4s2.288-.18 2.424-.4 1.126-.4 2.2-.4 2.064-.18 2.2-.4.957-.4 1.824-.4 1.576-.18 1.576-.4.709-.4 1.576-.4 1.688-.18 1.824-.4.856-.4 1.6-.4 1.464-.18 1.6-.4.856-.4 1.6-.4 1.464-.18 1.6-.4.764-.4 1.395-.4 1.418-.27 1.748-.6 1.063-.6 1.628-.6c.566 0 1.029-.18 1.029-.4s.54-.4 1.2-.4 1.2-.18 1.2-.4.63-.4 1.4-.4 1.4-.18 1.4-.4.54-.4 1.2-.4 1.2-.18 1.2-.4.54-.4 1.2-.4 1.2-.18 1.2-.4.54-.4 1.2-.4 1.2-.18 1.2-.4.349-.4.776-.4.888-.18 1.024-.4.687-.4 1.224-.4.976-.18.976-.4.439-.4.976-.4 1.088-.18 1.224-.4.597-.4 1.024-.4.776-.18.776-.4.349-.4.776-.4.888-.18 1.024-.4.597-.4 1.024-.4.776-.18.776-.4.36-.4.8-.4.8-.18.8-.4.36-.4.8-.4.8-.18.8-.4.36-.4.8-.4.8-.18.8-.4.36-.4.8-.4.8-.18.8-.4.341-.4.757-.4c.417 0 .861-.27.988-.6.126-.33.596-.6 1.042-.6s.813-.18.813-.4.36-.4.8-.4.8-.18.8-.4.36-.4.8-.4.8-.18.8-.4.36-.4.8-.4.8-.18.8-.4.236-.4.525-.4c.288 0 .911-.36 1.383-.8s1.136-.8 1.475-.8.617-.18.617-.4.32-.4.712-.4.971-.36 1.288-.8.897-.8 1.288-.8c.392 0 .712-.18.712-.4s.27-.4.6-.4.6-.18.6-.4.36-.4.8-.4.8-.18.8-.4.27-.4.6-.4.6-.18.6-.4.27-.4.6-.4.6-.18.6-.4.195-.4.433-.4c.455 0 3.709-2.5 4.814-3.698.356-.386.869-.702 1.139-.702.271 0 .997-.54 1.614-1.2s1.382-1.2 1.701-1.2 1.145-.54 1.836-1.2 1.437-1.2 1.659-1.2.404-.18.404-.4.185-.4.411-.4 1.22-.81 2.21-1.8 1.93-1.8 2.09-1.8c.377 0 3.689-3.027 3.689-3.372 0-.381 1.902-2.228 2.294-2.228.181 0 .589-.36.906-.8s.725-.8.906-.8c.92 0 10.694-9.909 10.694-10.842 0-.447.987-1.558 1.385-1.558.386 0 2.739-2.472 3.806-4 .538-.77 1.48-1.877 2.094-2.46.613-.584 1.115-1.224 1.115-1.422 0-.199.585-1.01 1.3-1.803 2.22-2.461 2.7-3.107 2.7-3.631 0-.279.36-.767.8-1.084s.8-.857.8-1.2.36-.883.8-1.2.805-.762.811-.988c.006-.227.542-.933 1.192-1.57s1.286-1.492 1.415-1.9c.13-.408.404-.742.609-.742s.373-.193.373-.428.54-1.213 1.2-2.172 1.2-1.937 1.2-2.172.18-.428.4-.428.4-.32.4-.712.36-.971.8-1.288.8-.897.8-1.288c0-.392.18-.712.4-.712s.4-.278.4-.617.36-1.003.8-1.475.8-1.095.8-1.383.18-.525.4-.525.4-.36.4-.8.18-.8.4-.8.4-.36.4-.8.18-.8.4-.8.4-.36.4-.8.18-.8.4-.8.4-.45.4-1c0-.622.227-1 .6-1 .333 0 .6-.356.6-.8 0-.44.18-.8.4-.8s.4-.36.4-.8.18-.8.4-.8.4-.36.4-.8.18-.8.4-.8.4-.36.4-.8.18-.8.4-.8.4-.36.4-.8.18-.8.4-.8.4-.272.4-.605.18-.963.4-1.4l.8-1.59c.22-.437.4-1.157.4-1.6s.18-.805.4-.805.4-.36.4-.8.18-.8.4-.8.4-.54.4-1.2.18-1.2.4-1.2.4-.36.4-.8.18-.8.4-.8.4-.54.4-1.2.18-1.2.4-1.2.4-.54.4-1.2.18-1.2.4-1.2.4-.54.4-1.2.18-1.2.4-1.2.4-.439.4-.976.18-1.088.4-1.224.4-.867.4-1.624.18-1.376.4-1.376.4-.525.4-1.167c0-.641.19-1.23.421-1.307.424-.141 1.076-2.209 1.46-4.63.114-.717.368-1.402.563-1.523.196-.121.356-.829.356-1.573s.18-1.464.4-1.6.4-.946.4-1.8.18-1.664.4-1.8.4-.957.4-1.824.18-1.576.4-1.576.4-.979.4-2.176.18-2.288.4-2.424.4-1.227.4-2.424.18-2.176.4-2.176c.232 0 .4-1.307.4-3.12 0-1.963.185-3.306.5-3.62.389-.389.5-5.786.5-24.26s-.111-23.871-.5-24.26c-.308-.308-.5-1.613-.5-3.396 0-1.593-.18-3.008-.4-3.144s-.4-1.216-.4-2.4-.18-2.264-.4-2.4-.4-1.191-.4-2.344-.162-2.267-.359-2.476-.463-1.1-.59-1.98c-.128-.88-.345-2.366-.484-3.303-.138-.936-.412-1.802-.609-1.923-.197-.122-.358-.931-.358-1.798s-.161-1.576-.358-1.576-.457-.675-.577-1.5c-.449-3.07-.78-4.169-1.315-4.375-.336-.129-.55-.816-.55-1.768 0-.856-.18-1.557-.4-1.557s-.4-.54-.4-1.2-.18-1.2-.4-1.2-.4-.54-.4-1.2-.18-1.2-.4-1.2-.4-.54-.4-1.2-.18-1.2-.4-1.2-.4-.529-.4-1.176-.18-1.288-.4-1.424-.4-.597-.4-1.024-.18-.776-.4-.776-.4-.54-.4-1.2-.18-1.2-.4-1.2-.4-.36-.4-.8-.18-.8-.4-.8-.4-.54-.4-1.2-.18-1.2-.4-1.2-.4-.36-.4-.8-.18-.8-.4-.8-.4-.45-.4-1-.18-1-.4-1-.4-.45-.4-1-.18-1-.4-1-.4-.349-.4-.776-.18-.888-.4-1.024-.4-.597-.4-1.024-.18-.776-.4-.776-.4-.36-.4-.8-.18-.8-.4-.8-.4-.36-.4-.8-.18-.8-.4-.8-.4-.36-.4-.8c0-.444-.267-.8-.6-.8s-.6-.356-.6-.8c0-.44-.18-.8-.4-.8s-.4-.45-.4-1-.18-1-.4-1-.4-.36-.4-.8-.18-.8-.4-.8-.4-.27-.4-.6-.18-.6-.4-.6-.4-.27-.4-.6-.18-.6-.4-.6-.4-.36-.4-.8-.18-.8-.4-.8-.4-.36-.4-.8-.18-.8-.4-.8-.4-.236-.4-.525c0-.288-.36-.911-.8-1.383s-.8-1.096-.8-1.387-.36-.788-.8-1.105-.8-.863-.8-1.213-.36-1.023-.8-1.495-.8-1.012-.8-1.2-.315-.69-.7-1.117c-.385-.426-.955-1.27-1.268-1.875-.312-.605-.807-1.1-1.1-1.1-.292 0-.532-.32-.532-.712s-.36-.971-.8-1.288-.8-.857-.8-1.2-.36-.883-.8-1.2-.8-.78-.8-1.029-.54-1.017-1.2-1.708-1.2-1.437-1.2-1.659-.141-.404-.314-.404c-.172 0-.626-.529-1.008-1.176-.383-.647-1.411-1.922-2.287-2.833s-1.591-1.777-1.591-1.924c0-.368-3.042-3.667-3.382-3.667-.434 0-1.418-1.098-1.418-1.582 0-.241-.765-1.216-1.7-2.165s-2.538-2.624-3.563-3.722-2.624-2.611-3.553-3.363c-.929-.753-2.108-1.773-2.619-2.268s-1.03-.9-1.155-.9c-.124 0-1.537-1.305-3.138-2.9-1.602-1.595-3.777-3.62-4.834-4.5s-2.16-1.825-2.451-2.1c-.292-.275-.634-.5-.762-.5s-.797-.54-1.488-1.2-1.517-1.2-1.836-1.2-1.084-.54-1.701-1.2-1.32-1.2-1.564-1.2-1.008-.54-1.699-1.2-1.433-1.2-1.649-1.2c-.217 0-.685-.316-1.041-.702-.825-.895-6.306-4.498-6.842-4.498a.404.404 0 0 1-.405-.4c0-.22-.32-.4-.712-.4s-.971-.36-1.288-.8-.897-.8-1.288-.8c-.392 0-.712-.18-.712-.4s-.278-.4-.617-.4-1.003-.36-1.475-.8-1.095-.8-1.383-.8-.525-.18-.525-.4-.36-.4-.8-.4-.8-.18-.8-.4-.371-.4-.824-.4-.712-.18-.576-.4c.14-.227-.196-.4-.776-.4-.563 0-1.024-.18-1.024-.4s-.27-.4-.6-.4-.6-.18-.6-.4-.315-.413-.7-.429-1.24-.366-1.9-.778c-2.064-1.287-3.503-1.993-4.061-1.993-.297 0-.539-.18-.539-.4s-.36-.4-.8-.4-.8-.18-.8-.4-.265-.4-.588-.4-1.229-.36-2.012-.8-1.689-.8-2.012-.8-.588-.18-.588-.4-.525-.4-1.167-.4c-.641 0-1.226-.178-1.3-.397-.073-.218-.628-.437-1.233-.487s-1.1-.231-1.1-.403-.36-.313-.8-.313-.8-.18-.8-.4-.54-.4-1.2-.4-1.2-.18-1.2-.4-.54-.4-1.2-.4-1.2-.18-1.2-.4-.54-.4-1.2-.4-1.2-.18-1.2-.4-.63-.4-1.4-.4-1.4-.18-1.4-.4-.54-.4-1.2-.4-1.2-.18-1.2-.4-.54-.4-1.2-.4-1.2-.18-1.2-.4-.72-.4-1.6-.4-1.6-.18-1.6-.4-.63-.4-1.4-.4-1.4-.18-1.4-.4-.643-.4-1.429-.4c-.785 0-1.698-.27-2.028-.6s-1.297-.6-2.148-.6-1.659-.18-1.795-.4-.856-.4-1.6-.4-1.464-.18-1.6-.4-1.126-.4-2.2-.4-2.064-.18-2.2-.4-1.227-.4-2.424-.4-2.176-.18-2.176-.4c0-.227-1.173-.4-2.72-.4-1.569 0-2.921-.201-3.196-.476-.473-.473-37.299-.825-47.184-.451m49.231 6.528c13.885 1.145 23.937 2.395 28.669 3.566 4.485 1.111 8.95 2.556 11.879 3.845.836.368 1.926.831 2.421 1.029l1.8.719c.495.197 1.53.576 2.3.84s1.76.631 2.2.814 1.97.73 3.4 1.215c9.976 3.382 21.443 9.404 21.121 11.093-.174.912-4.932 1.12-10.921.479-5.943-.637-18.539.128-26.2 1.59-.99.189-2.97.55-4.4.803-9.449 1.67-20.428 4.948-28.2 8.42-1.1.491-3.42 1.503-5.155 2.248-3.374 1.449-9.514 4.537-9.845 4.951-.11.138-.785.506-1.5.817s-1.3.701-1.3.868c0 .166-.17.302-.377.302-.367 0-18.025 11.498-18.423 11.996-.11.138-.589.516-1.064.84-.89.607-10.742 9.806-14.321 13.372-11.091 11.05-17.698 18.617-22.345 25.592a258 258 0 0 1-2.168 3.22c-.44.613-1.296 2.106-2.51 4.38a161 161 0 0 1-1.93 3.5c-.474.825-1.241 2.175-1.705 3s-.976 1.68-1.139 1.9-.983 2.02-1.821 4c-.837 1.98-2.225 5.13-3.083 7s-1.718 3.76-1.91 4.2c-.385.88-2.431 6.673-3.249 9.2-.285.88-.662 1.771-.837 1.98s-.318.706-.318 1.105-.162 1.038-.359 1.42-.762 2.045-1.255 3.695c-.494 1.65-1.213 3.99-1.598 5.2-4.231 13.269-7.272 32.306-6.217 38.91.178 1.111.09 1.569-.332 1.731-1.705.654-4.525-3.174-9.09-12.341-.192-.385-.509-1.015-.705-1.4-3.312-6.508-7.552-20.78-9.239-31.1-.252-1.54-.624-3.7-.828-4.8-1.027-5.543-.785-26.202.386-33 .208-1.21.551-3.28.761-4.6.833-5.232 4.037-19.106 4.895-21.2.181-.44.557-1.52.836-2.4.28-.88.652-1.771.827-1.98s.318-.783.318-1.276.18-1.008.4-1.144.4-.599.4-1.029.158-1.094.351-1.476.565-1.415.826-2.295c1.645-5.533 9.19-19.629 12.958-24.209.276-.335 1.115-1.505 1.864-2.6s1.597-2.229 1.882-2.52.519-.652.519-.804c0-.151.405-.723.901-1.271.495-.548 1.929-2.346 3.187-3.996s2.968-3.727 3.8-4.616 3.042-3.319 4.911-5.4c3.716-4.136 4.696-5.103 6.801-6.71.77-.588 1.49-1.161 1.6-1.272.11-.112.695-.458 1.3-.77s1.1-.717 1.1-.9c0-.182.236-.332.525-.332.288 0 .882-.315 1.32-.7.747-.657 1.22-.959 3.455-2.2.495-.275.99-.59 1.1-.7.192-.192 1.708-1.006 5.6-3.007 5.946-3.058 12.419-5 20.6-6.181 1.76-.255 4.28-.628 5.6-.831 7.495-1.149 22.538-1.521 31.531-.78m-98.209 16.452c.096.826-.462 1.692-2.6 4.034-4.076 4.466-5.41 5.998-6.616 7.595-.602.797-1.329 1.689-1.617 1.983-.287.294-1.953 2.335-3.701 4.535s-3.495 4.291-3.883 4.647-.705.771-.705.922-.732 1.353-1.627 2.671c-4.22 6.213-11.562 21.687-13.172 27.76-.464 1.75-1.624 5.456-2.041 6.519-.198.505-.36 1.273-.36 1.705s-.162 1.099-.361 1.481-.544 1.415-.767 2.295l-.839 3.3-.812 3.2c-5.203 20.604-5.203 47.715.001 67.5 1.04 3.956 1.561 6.072 1.849 7.505.122.608.38 1.203.575 1.324.195.12.354.647.354 1.171s.18 1.064.4 1.2.4.689.4 1.229.163 1.294.363 1.676.636 1.595.969 2.695c1.008 3.323 2.979 8.529 5.15 13.6 1.948 4.549 2.445 5.558 4.977 10.1a548 548 0 0 1 4.913 9.1c2.048 3.874 5.644 9.74 7.268 11.858a240 240 0 0 1 3.502 4.723c6.847 9.511 12.256 15.519 21.444 23.819 2.192 1.98 4.552 4.14 5.246 4.8.693.66 2.559 2.19 4.148 3.4s3.278 2.535 3.754 2.945 1.496 1.215 2.266 1.788c2.873 2.14 6.8 5.768 6.8 6.282 0 .416-.768.496-3.5.365a1580 1580 0 0 0-8.5-.373c-4.588-.188-7.052-.579-11.4-1.808-.88-.249-2.23-.597-3-.774s-2.21-.588-3.2-.914-3.15-1.001-4.8-1.501-3.72-1.174-4.6-1.498a150 150 0 0 0-3.4-1.189c-.99-.331-1.971-.764-2.18-.962-.209-.199-.706-.361-1.105-.361s-1.038-.167-1.42-.372c-.382-.204-4.295-2.138-8.695-4.297-16.931-8.307-31.528-20.458-42.681-35.53a311 311 0 0 0-1.8-2.413C63.47 219.635 60 214.416 60 214.192c0-.148-.339-.746-.753-1.33-1.796-2.531-5.037-8.92-6.932-13.662-1.913-4.787-4.362-11.661-4.773-13.4-.208-.88-.56-2.32-.782-3.2-.423-1.675-.787-3.329-1.542-7-.249-1.21-.624-3.01-.834-4-1.732-8.188-2.003-10.953-2.233-22.8-.235-12.09.44-21.527 2.247-31.4.754-4.119 1.128-6.336 1.383-8.2.46-3.348 1.748-10.097 2.215-11.6.171-.55.538-1.81.814-2.8 1.875-6.705 7.383-19.2 8.464-19.2.179 0 .326-.193.326-.428 0-.613 2.067-3.462 4.078-5.621a244 244 0 0 0 3.922-4.357c1.21-1.38 4.823-4.868 8.029-7.751 7.243-6.514 7.84-7.028 9.571-8.231.77-.535 1.49-1.086 1.6-1.223s1.37-1.036 2.8-1.997 2.8-1.938 3.045-2.17c.244-.232 2.009-1.502 3.922-2.822 1.912-1.32 3.962-2.805 4.555-3.3s1.275-.899 1.516-.9c.241 0 .764-.36 1.162-.8s.938-.8 1.2-.8.802-.36 1.2-.8.966-.8 1.262-.8.538-.15.538-.332.495-.588 1.1-.9 1.19-.674 1.3-.806c.211-.252 7.601-4.362 7.844-4.362.077 0 1.089-.59 2.248-1.312 2.021-1.258 2.628-1.564 5.308-2.681.66-.275 1.47-.653 1.8-.84 1.38-.784 3.792-.239 3.922.886M297.2 50.435c13.72 1.435 30.902 6.484 34 9.991.11.125 1.1.829 2.2 1.566 5.789 3.876 18.999 16.412 23.227 22.041 3.884 5.172 7.379 9.949 9.013 12.322a3520 3520 0 0 0 3.727 5.4c7.846 11.344 13.519 22.759 17.816 35.845.903 2.75 1.805 5.36 2.003 5.8.866 1.918 2.499 7.458 3.242 11 .254 1.21.622 2.613.817 3.119.195.505.355 1.53.355 2.276 0 .747.18 1.469.4 1.605s.4.946.4 1.8.161 1.652.358 1.774c.197.121.457.897.579 1.723s.414 2.493.648 3.703c.715 3.701 1.162 8.394 1.219 12.8.03 2.31.222 5.19.426 6.4 1.259 7.443.843 9.397-1.041 4.9-1.464-3.494-4.393-9.156-6.569-12.7-3.187-5.191-3.654-5.998-3.884-6.7-.126-.385-.388-.7-.583-.7s-.353-.198-.353-.439c0-.242-1.035-1.88-2.3-3.641s-2.48-3.484-2.7-3.829a20 20 0 0 0-.893-1.259 756 756 0 0 1-2.8-3.666c-5.9-7.757-15.973-17.996-25.344-25.764-.53-.439-2.161-1.806-3.626-3.039-4.304-3.621-12.471-9.163-13.504-9.163-.17 0-.635-.36-1.033-.8s-.893-.8-1.1-.8-.854-.334-1.438-.741c-1.297-.906-20.343-10.632-21.462-10.96-.44-.129-2.6-.854-4.8-1.612-3.466-1.194-7.16-2.143-13.6-3.495-.88-.185-2.41-.523-3.4-.752-8.151-1.885-29.997-2.634-37.4-1.282-1.54.281-3.79.671-5 .866s-2.92.521-3.8.724c-.88.204-2.23.488-3 .632s-2.03.425-2.8.625c-1.88.487-6.271 1.587-8 2.004-.77.186-2.03.518-2.8.737-.77.22-1.85.517-2.4.66-1.192.311-2.005.625-4.4 1.702-3.229 1.451-4.558 2.008-7.4 3.104-6.276 2.418-12.846 5.335-16.695 7.413-.382.206-.879.375-1.104.375s-1.263.381-2.305.847a267 267 0 0 1-3.296 1.442c-4.597 1.957-16.086 8.047-17.656 9.359-2.664 2.229-3.944 1.588-3.944-1.975 0-1.015 5.846-12.575 9.343-18.473.586-.99 1.377-2.475 1.756-3.3s.827-1.5.995-1.5.308-.225.31-.5.801-1.58 1.774-2.9c.974-1.32 2.365-3.21 3.092-4.2 2.482-3.379 15.719-16.491 20.73-20.533 2.75-2.218 5.06-4.175 5.133-4.35s.374-.317.667-.317.593-.158.667-.35c.073-.193 2.293-1.746 4.933-3.451s5.288-3.439 5.885-3.851c.597-.413 3.166-1.82 5.709-3.128s5.14-2.746 5.772-3.196c4.323-3.078 18.142-7.71 27.434-9.195 2.86-.458 6.28-1.01 7.6-1.227 7.034-1.16 22.651-1.557 30.2-.767M24 116.5c0 .275-.281 1.76-.624 3.3-1.292 5.799-1.576 10.011-1.549 23 .024 11.506.23 15.161 1.131 20 .103.55.39 2.35.639 4 .741 4.908 1.23 7.715 1.602 9.2.193.77.566 2.3.829 3.4.723 3.023 2.58 9.3 3.551 12 .474 1.32 1.311 3.75 1.858 5.4 1.028 3.095 1.111 3.308 2.523 6.496.462 1.042.84 2.167.84 2.5 0 .332.18.604.4.604s.4.272.4.605.159.918.354 1.3.886 1.775 1.536 3.095c1.357 2.758 2.786 5.327 4.973 8.941.845 1.397 1.537 2.62 1.537 2.718 0 .23 4.057 6.278 4.387 6.541.138.11.684.83 1.213 1.6s1.242 1.67 1.584 2 1.426 1.68 2.407 3c7.531 10.132 16.297 19.258 24.398 25.4 1.596 1.21 3.131 2.417 3.411 2.683 1.006.955 14.457 9.624 16.998 10.956 1.429.748 2.689 1.451 2.8 1.562s.742.446 1.402.746c.66.301 1.56.739 2 .974 6.142 3.287 10.967 5.33 18.8 7.958 5.943 1.994 7.298 2.407 10.4 3.166.88.215 2.32.573 3.2.795 20.427 5.153 40.16 5.651 60.4 1.526 2.2-.448 4.553-.984 5.228-1.191.676-.206 1.743-.375 2.372-.375s1.696-.168 2.372-.373 2.038-.586 3.028-.845c.99-.26 2.16-.615 2.6-.787s1.43-.531 2.2-.795 1.76-.63 2.2-.814 2.42-.893 4.4-1.579c6.957-2.409 9.234-3.333 13.019-5.279 2.101-1.08 4.291-2.361 4.867-2.846 2.676-2.254 9.14-7.121 11.207-8.437 2.801-1.784 8.058-5.983 11.7-9.345 3.988-3.681 4.274-2.838 1.392 4.1-.183.44-.522 1.43-.754 2.2-2.855 9.469-5.323 14.827-10.914 23.698-4.101 6.506-10.357 15.189-12.322 17.102-.114.11-1.011 1.19-1.995 2.4-2.788 3.429-8.741 8.881-13.976 12.8-2.211 1.656-5.797 4.375-6.224 4.719-5.513 4.45-19.916 12.617-24.8 14.063-.88.261-1.96.627-2.4.815-1.043.444-11.131 3.755-13.2 4.332-2.675.745-8.227 1.942-11.4 2.456-1.65.268-3.9.664-5 .881-5.343 1.054-24.319.796-33.4-.452-1.43-.197-4.04-.555-5.8-.795-6.688-.915-9.371-1.627-17.6-4.672-9.266-3.429-12.22-4.613-14.541-5.827-1.177-.616-2.392-1.12-2.7-1.12-.307 0-.559-.18-.559-.4s-.272-.4-.605-.4c-.587 0-2.189-.76-2.595-1.232-.11-.128-1.55-.954-3.2-1.836s-3.72-2.014-4.6-2.516c-6.572-3.748-8.016-4.618-8.133-4.898-.074-.175-.355-.318-.625-.318s-.84-.315-1.267-.7-1.27-.955-1.875-1.268c-.605-.312-1.1-.717-1.1-.9 0-.182-.193-.332-.428-.332-.586 0-3.296-1.873-8.929-6.171-4.809-3.669-7.248-5.897-10.789-9.854-1.07-1.196-3.592-3.885-5.604-5.975s-4.463-4.79-5.448-6-1.899-2.29-2.03-2.4c-.132-.11-1.155-1.55-2.273-3.2-2.103-3.104-2.671-4.243-6.986-14-.438-.99-1.303-2.88-1.922-4.2-2.467-5.255-6.75-17.127-7.938-22-2.69-11.036-4.457-20.209-5.276-27.4-1.832-16.066-.686-44.917 2.39-60.2.222-1.1.512-2.63.645-3.4s.398-1.76.588-2.2.44-1.34.555-2 .381-2.01.592-3 .563-2.7.784-3.8c.553-2.753 2.53-10.115 3.331-12.4.913-2.606 3.93-8.035 6.234-11.22.327-.453.911-1.449 2.186-3.735.443-.795.887-1.58.986-1.745.289-.483.932-.345.932.2m257.15 6.519c14.555 2.34 16.446 2.751 22.239 4.828 9.638 3.456 26.76 13.16 33.411 18.935.77.669 1.61 1.217 1.867 1.217.256.001.526.152.6.336s1.597 1.45 3.387 2.812c4.72 3.593 13.173 12.15 17.351 17.564 1.99 2.579 3.838 4.967 4.106 5.307 1.356 1.713 3.089 4.359 3.089 4.714 0 .221.141.461.314.535.453.192 5.618 9.012 8.16 13.933 3.436 6.651 6.294 14.417 7.754 21.068.33 1.503.855 3.902 1.166 5.332 2.751 12.63 2.278 32.86-1.017 43.49-2.226 7.18-8.155 20.692-11.897 27.11-.641 1.1-1.662 2.9-2.268 4-.937 1.7-4.558 7.448-8.566 13.6-3.353 5.146-8.729 11.747-16.246 19.949-11.469 12.514-19.851 20.56-24.776 23.782-1.553 1.016-2.884 1.988-2.958 2.161-.074.172-.302.209-.507.082-.363-.224.69-1.979 2.13-3.549.391-.427.711-.903.711-1.059s1.099-2.031 2.441-4.167c1.343-2.137 2.805-4.72 3.25-5.742 1.889-4.343 2.544-5.759 5.297-11.457 3.286-6.803 5-11.055 6.206-15.4.458-1.65.998-3.54 1.2-4.2s1.009-4.26 1.795-8c.785-3.74 1.531-7.25 1.658-7.8 2.097-9.096 3.143-34.696 1.765-43.2-.196-1.21-.561-3.73-.811-5.6-.821-6.138-2.034-11.006-4.585-18.4-2.14-6.205-1.935-5.697-4.526-11.2-1.088-2.31-2.291-4.92-2.673-5.8-1.26-2.902-2.698-5.569-4.205-7.8-.817-1.21-2.27-3.439-3.23-4.953s-1.933-2.958-2.163-3.21c-.231-.251-1.042-1.262-1.803-2.247a67 67 0 0 0-3.044-3.59c-.913-.99-3.165-3.6-5.005-5.8-5.324-6.365-9.043-10.281-14.197-14.945-1.304-1.179-4.76-4.406-7.682-7.171-2.922-2.764-5.712-5.302-6.2-5.64-.765-.53-2.979-2.46-4.448-3.877-.578-.558-10.308-7.141-11.065-7.486-.316-.145-1.475-.801-2.575-1.459s-3.665-2.012-5.7-3.009c-11.115-5.446-14.705-7.013-16.066-7.013-.405 0-.94-.246-1.19-.547-.891-1.074 1.296-1.958 8.156-3.295 1.76-.343 4.19-.892 5.4-1.219a316 316 0 0 1 8.2-2.071c2.619-.631 13.463-.538 17.75.151m-61.415 18.774c2.993.635 6.78 1.888 9.24 3.058.866.412 1.717.749 1.89.749s1.494.54 2.935 1.2 2.796 1.2 3.01 1.2c.215 0 .39.138.39.306s.675.619 1.5 1.002c5.338 2.478 9.377 5.786 15.523 12.714 1.4 1.577 5.743 7.383 6.418 8.578 1.695 3.002 2.959 5.555 2.959 5.979 0 .274.294 1.087.653 1.806.693 1.39.953 2.274 1.884 6.415 1.534 6.824 1.948 15.086 1.038 20.754-.865 5.395-1.179 6.91-2.454 11.846-.689 2.666-2.753 7.838-3.984 9.986-.248.432-1.229 2.322-2.18 4.2-2.323 4.586-13.048 17.374-16.242 19.365-.597.372-1.317.902-1.6 1.176-.283.275-1.145.935-1.915 1.467s-1.49 1.075-1.6 1.206c-1.051 1.254-12.262 7-16.2 8.303-1.501.497-4.369 1.114-8.015 1.724-3.043.509-12.12.289-15.585-.378a564 564 0 0 0-8.104-1.513c-.717-.123-1.402-.385-1.523-.58-.121-.196-.501-.356-.845-.356-1.881 0-12.038-6.003-15.181-8.972-.249-.235-1.235-1.058-2.191-1.828-2.75-2.214-7.253-6.799-9.039-9.2-4.341-5.84-9.971-15.101-11.368-18.7a112 112 0 0 0-.719-1.8c-.203-.495-.483-1.44-.621-2.1l-.634-3c-1.036-4.877-1.266-7.225-1.451-14.8-.252-10.336.2-13.563 2.662-19 1.276-2.82 2.014-4.991 2.014-5.928 0-.37.18-.672.4-.672s.4-.342.4-.759c0-1.026 2.067-4.891 3.722-6.959.739-.925 1.575-2.264 1.857-2.976s1.752-2.581 3.267-4.154 2.754-3.09 2.754-3.371 1.215-1.363 2.7-2.405 3.343-2.503 4.13-3.247c1.518-1.438 2.829-2.252 6.37-3.956 5.502-2.647 7.408-3.386 13.8-5.348 1.178-.361 5.842-1.101 8.6-1.364 4.462-.425 18.816-.201 21.335.332M198.4 165.991c-.33.218-1.004.4-1.498.403-1.351.009-6.486 2.504-10.204 4.957-16.453 10.859-22.235 35.006-12.085 50.468 2.841 4.329 12.672 13.381 14.532 13.381.213 0 .448.144.522.32.163.392 7.334 2.668 10.253 3.254 7.057 1.418 18.472-.881 24.471-4.929 4.51-3.044 10.809-9.696 10.809-11.417 0-.235.18-.428.4-.428s.4-.197.4-.438.33-.916.734-1.5c3.709-5.363 5.905-18.602 4.251-25.621-.99-4.2-3.932-9.293-7.549-13.068-.943-.984-2.416-2.816-3.275-4.071-3.109-4.547-10.57-9.885-15.561-11.133-1.913-.479-15.52-.629-16.2-.178m91.167 21.309c1.398 1.595 4.183 4.617 6.188 6.716 7.736 8.1 15.752 20.835 20.131 31.984 6.318 16.085 7.121 20.899 7.037 42.2-.083 21.231-1.431 28.8-8.263 46.4-3.196 8.233-9.76 19.907-13.508 24.026-.414.454-.752.977-.752 1.163 0 .185-.689 1.254-1.531 2.374-.843 1.12-2.36 3.222-3.373 4.67-2.633 3.766-12.682 13.665-19.051 18.767-.961.77-2.04 1.677-2.396 2.016-.746.708-2.597 1.911-6.849 4.451-24.574 14.681-42.15 20.251-69.297 21.96-12.936.814-33.172-1.322-45.503-4.804-.77-.218-3.38-.871-5.8-1.451-7.198-1.727-17.726-4.844-20.8-6.157-.44-.188-2.06-.822-3.6-1.409s-4.51-1.987-6.6-3.11a613 613 0 0 0-7.078-3.74c-4.405-2.28-6.579-3.547-10.004-5.833-1.585-1.058-3.005-1.923-3.155-1.923-.752 0-11.547-10.35-11.178-10.718.074-.075 1.036.321 2.137.878 5.843 2.961 17.066 6.933 23.178 8.204l4.2.871c1.155.239 2.791.611 3.636.827 14.32 3.655 40.474 3.803 56.264.317 6.136-1.355 12.28-3.018 15.4-4.169 1.98-.73 4.77-1.732 6.2-2.226 14.412-4.978 32.662-15.946 47.707-28.67 1.876-1.587 4.825-4.446 6.552-6.353 1.728-1.908 4.435-4.88 6.017-6.606 3.769-4.112 12.924-15.556 12.924-16.155 0-.105.315-.558.7-1.007 1.642-1.914 4.925-8.397 6.986-13.793.672-1.76 1.356-3.38 1.52-3.6.373-.5 3.973-7.715 4.391-8.8.314-.817 1.806-5.835 2.378-8 1.511-5.721 1.879-7.179 2.426-9.6.249-1.1.788-3.35 1.199-5 1.355-5.442 1.567-6.555 2.17-11.4 1.862-14.968.508-40.459-2.571-48.4-.943-2.43-1.553-7.8-.887-7.8.172 0 1.457 1.305 2.855 2.9m-80.388 2.522c6.539 5.198 8.938 7.64 9.543 9.712 1.21 4.148 1.347 5.153.916 6.706-.239.858-.435 1.976-.436 2.485-.007 2.994-4.325 8.219-7.658 9.266-.959.301-1.915.697-2.124.879-3.442 2.992-17.82-4.967-17.82-9.865 0-.333-.156-.605-.347-.605-.828 0-1.291-6.697-.656-9.5.161-.715.453-1.3.648-1.3s.355-.185.355-.411c0-.485 1.843-2.576 4.523-5.131 4.19-3.996 9.663-4.933 13.056-2.236"/><path fill="#f141a4" d="M263.6 123.259c-2.306.504-7.901 1.927-9.2 2.338-.55.175-2.08.53-3.4.79-4.267.841-5.053 1.139-2.6.987 1.456-.09 1.794-.041 1 .145-.66.155-1.965.69-2.899 1.189-1.082.578-2.1.834-2.8.706-.606-.111-.381.044.499.343 8.545 2.91 30.252 15.135 35.4 19.937.77.718 2.3 2.025 3.4 2.904 1.1.88 4.16 3.691 6.8 6.249s5.79 5.523 7 6.588 3.653 3.384 5.429 5.152c2.951 2.937 4.453 4.622 10.371 11.632 1.1 1.303 2.635 3.092 3.411 3.975 3.225 3.671 5.171 6.171 7.009 9.006 6.378 9.832 6.415 9.898 8.18 14.4.474 1.21 1.583 3.55 2.463 5.2 2.884 5.403 7.188 19.057 8.323 26.4.255 1.65.634 3.99.843 5.2 2.065 12.002 1.13 35.404-1.974 49.4-.195.88-.757 3.4-1.248 5.6-.492 2.2-1.041 4.72-1.22 5.6s-.51 2.23-.734 3-.577 2.03-.784 2.8c-.557 2.072-1.328 4.146-2.116 5.695-.194.382-.353.88-.353 1.108 0 .409-.998 2.598-5.285 11.597-2.918 6.123-3.515 7.457-3.517 7.86-.001.187-1.191 2.32-2.643 4.74-3.352 5.585-4.155 6.978-4.155 7.212 0 .311 1.123.211 1.267-.112.073-.165 1.123-1.054 2.333-1.975s3.931-3.351 6.048-5.4a759 759 0 0 1 5.8-5.563c1.073-1.011 2.93-2.901 4.126-4.2a704 704 0 0 1 5.4-5.773c14.065-14.868 25.935-32.66 33.885-50.789 1.302-2.97 2.538-5.76 2.746-6.2.418-.883 1.903-5.183 2.971-8.6.378-1.21.844-3.19 1.036-4.4.191-1.21.627-3.984.968-6.165 3.008-19.239-2.201-45.545-12.502-63.135a285 285 0 0 1-1.641-2.847c-7.275-12.837-19.607-27.537-29.203-34.811-11.146-8.45-18.787-13.353-28.034-17.988-11.059-5.544-16.884-7.297-31.6-9.509-3.959-.595-16.517-.786-18.8-.286m94 17.741c.746.77 1.447 1.4 1.557 1.4s-.411-.63-1.157-1.4-1.447-1.4-1.557-1.4.411.63 1.157 1.4m12.796 12.594c.694.877 1.471 1.724 1.727 1.882.255.158-.23-.56-1.078-1.595S369.42 152 369.318 152s.383.718 1.078 1.594m2.004 2.531c0 .069.571.654 1.268 1.3l1.268 1.175-.895-1.3c-.735-1.067-1.641-1.716-1.641-1.175m20.806 4.508c.003.422.189 1.037.412 1.367.297.438.334.276.138-.6-.329-1.471-.558-1.79-.55-.767"/><path fill="#4c6474" d="M205 6.619c-.22.086-2.38.349-4.8.585-2.42.237-5.39.587-6.6.779l-2.2.35 2-.126c1.1-.068 4.07-.368 6.6-.666 5.959-.701 23.987-.707 31.6-.01 3.19.291 7.15.595 8.8.673l3 .143-3-.343c-11.291-1.289-33.424-2.155-35.4-1.385m-17.2 2.217c-1.1.186-2.63.518-3.4.739l-1.4.403 1.4-.184c3.128-.411 6.563-1.024 6.742-1.203.252-.252-.885-.168-3.342.245m55.847-.268c.136.143 1.576.424 3.2.626 3.528.438 7.16 1.053 9.353 1.583 3.305.8 3.994.926 3.783.694-.354-.389-4.597-1.404-8.52-2.039-5.228-.845-8.102-1.163-7.816-.864M180.6 10.392c-1.392.361-3.33 1.145-2.92 1.183.454.041 4.822-1.144 5.047-1.369.276-.276-.656-.194-2.127.186m-5.747 1.861c-.74.323-1.261.672-1.158.775.104.104.98-.162 1.947-.591s1.488-.779 1.158-.776c-.33.002-1.206.269-1.947.592m85.58-.49c.092.09 1.697.697 3.567 1.35 1.87.652 3.76 1.325 4.2 1.495.545.211.673.179.4-.102-.46-.472-6.987-2.906-7.796-2.906-.295 0-.462.073-.371.163M171.2 13.941c-2.858 1.448-6.606 3.465-6.8 3.659-.11.11-.605.425-1.1.7-2.235 1.241-2.708 1.543-3.455 2.2-.438.385-1.032.7-1.32.7s-.525.15-.525.332-.495.588-1.1.9-1.19.658-1.3.77-.83.684-1.6 1.272c-2.138 1.632-3.118 2.606-6.768 6.726-3.12 3.522-3.003 3.431 1.601-1.251C153.287 25.42 160.215 20 161.551 20c.21 0 .442-.159.516-.353.073-.194 2.651-1.724 5.728-3.4 4.918-2.679 7.228-4.243 3.405-2.306M280 19.05c10.437 4.058 18.249 7.832 20.439 9.872 1.403 1.307.536 1.595-3.994 1.326-2.335-.139-6.439-.365-9.12-.503-5.847-.301-14.383.383-23.525 1.886-3.575.588-9.755 1.859-11.6 2.386-.66.189-2.37.642-3.8 1.007-4.13 1.053-8.894 2.615-8.667 2.842.114.114 1.256-.145 2.537-.576 5.294-1.779 12.05-3.492 17.73-4.496 1.43-.253 3.41-.614 4.4-.803 7.661-1.462 20.257-2.227 26.2-1.59 5.989.641 10.747.433 10.921-.479.316-1.659-9.724-6.991-20.572-10.926-3.576-1.297-4.316-1.255-.949.054m-154.4 3.317c-.33.187-1.05.518-1.6.736-1.926.762-4.804 2.227-4.659 2.371.08.08.936-.244 1.902-.721.967-.477 2.117-.999 2.557-1.16s1.303-.496 1.919-.743c3.499-1.407 4.299.707 1.377 3.639-.937.941-3.214 3.511-5.058 5.711l-4.994 5.957c-3.041 3.631-5.904 7.443-5.573 7.421.181-.012 1.461-1.497 2.844-3.3s3.07-3.908 3.748-4.678a60 60 0 0 0 2.285-2.783c1.171-1.541 2.561-3.133 6.574-7.53 3.325-3.643 3.56-5.028.878-5.174-.88-.048-1.87.066-2.2.254m-13.7 7.062c-1.495.811-1.404 1.149.1.371.66-.341 1.2-.706 1.2-.81 0-.258-.043-.243-1.3.439m-2.5 1.449c-.44.249-.89.559-1 .688-.11.13-.695.49-1.3.802s-1.1.711-1.1.886c0 .351 2.027-.801 3.6-2.045 1.111-.879 1.023-1.024-.2-.331m-7.638 5.18c-.757.852-.756.855.116.398.972-.51 1.571-1.256 1.008-1.256-.199 0-.705.386-1.124.858m40.113.94c-.839.969-2.459 2.985-3.6 4.481s-2.48 3.168-2.975 3.716-.9 1.121-.9 1.272-.234.514-.519.804-1.129 1.429-1.874 2.529-1.457 2.09-1.583 2.2c-1.379 1.203-7.104 10.253-6.726 10.631.107.108.667-.755 1.243-1.918s2.434-4.003 4.127-6.313c5.028-6.858 9.712-13.12 10.239-13.688 1.935-2.085 4.69-5.509 4.42-5.493-.18.01-1.013.811-1.852 1.779M236.6 38.8c-.88.407-1.33.741-1 .741s1.32-.334 2.2-.741 1.33-.741 1-.741-1.32.334-2.2.741M95.9 40.032c-3.086 2.189-2.938 2.426.2.321 2.998-2.011 2.925-1.953 2.467-1.953-.202 0-1.402.734-2.667 1.632m134.5 1.235c-.99.454-2.43 1.094-3.2 1.42-10.963 4.651-30.748 17.455-38.496 24.912-2.583 2.486-5.016 4.744-5.406 5.017s-3.857 3.802-7.704 7.841-6.696 7.11-6.332 6.825c.365-.285 2.435-2.354 4.6-4.597 6.721-6.964 18.413-18.18 20.274-19.449.475-.324.954-.702 1.064-.84.398-.498 18.056-11.996 18.423-11.996.207 0 .377-.136.377-.302 0-.167.585-.557 1.3-.868s1.39-.68 1.5-.82c.348-.442 7.243-3.842 11.4-5.622 3.788-1.622 5.253-2.414 4.38-2.368-.209.011-1.19.392-2.18.847M91.705 42.925c-.712.481-1.297 1.022-1.3 1.202-.006.361 2.23-1.137 2.607-1.746.322-.521.184-.464-1.307.544M87.8 45.823c-1.1.759-2.288 1.624-2.641 1.923-.352.3-1.339 1.019-2.192 1.599S81.57 50.4 81.76 50.4c.375 0 8.24-5.572 8.24-5.838 0-.248-.063-.212-2.2 1.261m20.742 3.506c-2.898 4.342-10.027 18.12-9.598 18.548.128.129.422-.262.653-.869.453-1.193 3.828-7.965 6.125-12.29a67 67 0 0 1 3.087-5.131c.914-1.347 1.599-2.512 1.522-2.589s-.882.971-1.789 2.331m167.458.91c-.33.081-2.58.333-5 .561-2.42.227-5.21.582-6.2.787-1.782.369-1.778.371.4.157 20.302-1.99 29.186-1.774 44.4 1.077 3.671.689 13.061 3.614 15.851 4.939 10.004 4.751 25.804 19.005 33.994 30.667.684.975 3.102 4.383 5.372 7.573 4.664 6.552 6.777 9.664 7.907 11.641.427.747 1.559 2.619 2.516 4.159s3.045 5.41 4.641 8.6 2.905 5.611 2.91 5.381c.033-1.575-8.672-17.155-13.424-24.026a3520 3520 0 0 1-3.727-5.4c-1.634-2.373-5.129-7.15-9.013-12.322-4.228-5.629-17.438-18.165-23.227-22.041-1.1-.737-2.09-1.441-2.2-1.566-3.098-3.507-20.28-8.556-34-9.991-3.819-.4-19.763-.547-21.2-.196M74.393 56.738c-3.626 3.267-7.583 7.07-8.793 8.451a236 236 0 0 1-3.922 4.362c-2.012 2.16-4.234 5.226-3.975 5.485.099.099.652-.533 1.229-1.404 3.072-4.644 12.097-13.745 21.829-22.015.529-.449.796-.817.594-.817s-3.335 2.672-6.962 5.938M259.4 52.4l-1.6.286 1.6.017c.88.01 2.05-.127 2.6-.303l1-.32-1 .017c-.55.009-1.72.145-2.6.303m-4.8.812c-2.118.431-4.241 1.315-2.4 1 2.56-.437 5.148-1.027 5.336-1.215.27-.269-1.01-.175-2.936.215m-6.734 1.862c-1.063.326-1.833.693-1.709.816.23.23 4.643-1.032 4.643-1.327 0-.268-.891-.113-2.934.511m-6.441 2.137c-3.737 1.365-7.932 3.326-9.496 4.439-.611.436-3.192 1.862-5.735 3.17s-5.112 2.715-5.709 3.128c-.597.412-3.245 2.145-5.885 3.851s-4.86 3.258-4.933 3.451c-.074.192-.374.35-.667.35s-.593.143-.667.317c-.073.175-2.383 2.132-5.133 4.35-5.011 4.042-18.248 17.154-20.73 20.533-.727.99-2.118 2.88-3.092 4.2-.973 1.32-1.771 2.625-1.774 2.9-.002.275-.14.5-.306.5-.167 0-.555.585-.863 1.3a17 17 0 0 1-1.341 2.423c-.43.618-.686 1.218-.57 1.334s.435-.209.709-.723c1.735-3.257 3.737-6.624 4.636-7.799.478-.624 1.736-2.298 2.797-3.719 2.676-3.586 15.406-16.288 20.349-20.304C208.992 76.057 217.433 70 218.224 70c.128 0 .984-.51 1.904-1.133s3.422-2.064 5.562-3.203c2.139-1.138 4.479-2.424 5.2-2.858 2.847-1.714 7.458-3.94 10.31-4.975 4.02-1.46 4.732-1.777 4-1.778-.33-.001-2.029.521-3.775 1.158m-118.639 7.09c-.841 1.686-.846 1.699-.639 1.699.258 0 1.495-2.492 1.322-2.664-.074-.074-.381.36-.683.965m-2.773 5.593c-2.507 5.144-2.567 5.285-2.333 5.52.119.118.635-.827 1.149-2.1a60 60 0 0 1 2.061-4.472c.62-1.186 1.061-2.224.98-2.305-.082-.082-.917 1.429-1.857 3.357m-23.767 4.352c-.836 2.455-.571 2.72.339.339.385-1.009.611-1.922.502-2.031s-.487.653-.841 1.692M54.313 80.7c-2.368 4.584-4.039 8.864-5.503 14.1-.276.99-.643 2.25-.814 2.8s-.517 2.08-.769 3.4c-.253 1.32-.632 3.168-.843 4.106s-.366 2.288-.344 3c.023.73.292-.1.617-1.906.641-3.564 2.011-9.757 2.565-11.6.718-2.389 2.038-6.418 2.359-7.2 1.019-2.484 3.462-7.48 4.637-9.486.746-1.273 1.216-2.314 1.043-2.314-.172 0-1.499 2.295-2.948 5.1m62.736-4.085a3.9 3.9 0 0 0-.215 1.318c.019.367.193.136.387-.513.377-1.262.244-1.887-.172-.805m-22.382 2.452c-.845 2.968-.566 3.247.346.346.386-1.227.612-2.321.503-2.431-.11-.109-.492.829-.849 2.085m21.6 0c-.147.146-.256.641-.242 1.1.024.766.057.756.409-.125.392-.979.31-1.453-.167-.975m-.8 2.4c-.147.146-.256.641-.242 1.1.024.766.057.756.409-.125.392-.979.31-1.453-.167-.975m-22.038 1.562c-.148.586-.178 1.155-.068 1.265s.32-.279.468-.865c.147-.587.177-1.156.067-1.266s-.32.279-.467.866m21.143 1.214a59 59 0 0 1-.663 1.87c-.229.612-.323 1.207-.208 1.322s.499-.642.853-1.681.558-1.975.454-2.079-.3.151-.436.568m-22.109 2.23c-1.068 3.435-2.523 9.601-2.315 9.809.117.117.321-.304.452-.935.244-1.17.652-2.819 1.446-5.847.245-.935.622-2.081.839-2.547s.331-1.153.254-1.527c-.08-.39-.368.057-.676 1.047m20.604 1.794c-.147.146-.256.641-.242 1.1.024.766.057.756.409-.125.392-.979.31-1.453-.167-.975m52.523 2.791a481 481 0 0 1-2.99 3.51c-1.611 1.819-6.391 8.632-6.057 8.632.096 0 1.362-1.676 2.814-3.725s4.174-5.469 6.048-7.6S168.67 88 168.497 88s-1.482 1.376-2.907 3.058m-53.302-.125c-.446 1.133-.373 1.712.15 1.189.24-.24.37-.771.288-1.18-.144-.716-.16-.716-.438-.009m-.859 3.696c-.148.586-.178 1.155-.068 1.265s.32-.279.468-.865c.147-.587.177-1.156.067-1.266s-.32.279-.467.866M89.482 98.2c-.153.88-.463 2.5-.687 3.6-.65 3.175-1.172 6.971-1.375 10-.238 3.524-.019 2.701.585-2.2.257-2.09.823-5.564 1.257-7.72s.724-4.226.644-4.6-.271.04-.424.92m21.367-1c-.033.33-.16 1.05-.282 1.6-.192.864-.16.903.232.288.249-.391.376-1.111.282-1.6-.095-.488-.199-.618-.232-.288m-.789 3.667c-.033.587-.164 1.397-.29 1.8-.218.693-.205.694.225.023.251-.391.382-1.201.291-1.8l-.166-1.09zm142.94 1.49c-.88.134 4.25.247 11.4.251 13.003.008 15.817.232 22.7 1.804.935.213 2.465.552 3.4.752 7.048 1.509 10.218 2.324 13.7 3.523 5.007 1.724 5.957 1.967 4.6 1.176-1.823-1.063-10.209-3.495-16.2-4.698-.88-.177-2.41-.512-3.4-.744-9.155-2.151-28.408-3.249-36.2-2.064m-6 .843c-.44.189-1.409.356-2.154.372-.744.015-2.094.222-3 .46-2.591.679-4.262 1.07-6.846 1.603-2.683.553-4.426 1.285-2.2.924.77-.124 1.85-.376 2.4-.56.55-.183 1.63-.436 2.4-.563s2.21-.415 3.2-.641 2.97-.603 4.4-.837 3.41-.565 4.4-.738l1.8-.313-1.8-.025c-.99-.014-2.16.129-2.6.318m-91.563 1.4c-.361.55-.5 1-.31 1 .189 0 .55-.45.8-1 .251-.55.39-1 .31-1s-.44.45-.8 1m-46.372.6c-.144.77-.457 2.57-.695 4-.239 1.43-.61 3.59-.825 4.8s-.45 3.91-.522 6-.067 3.08.01 2.2c.291-3.319 1.035-9.267 1.375-11 .195-.99.565-2.811.824-4.047s.386-2.495.282-2.8c-.103-.304-.305.077-.449.847m43.11 4.872a335 335 0 0 1-3.818 6.67c-.834 1.397-2.084 3.917-2.777 5.6a159 159 0 0 1-2.383 5.458c-1.725 3.689-2.427 5.504-2.212 5.719.108.107.317-.145.465-.562.147-.416.933-2.197 1.746-3.957s2.164-4.82 3.001-6.8c.838-1.98 1.657-3.78 1.821-4s.676-1.075 1.139-1.9c.464-.825 1.231-2.175 1.705-3s1.386-2.486 2.026-3.691c.641-1.205 1.359-2.424 1.595-2.71.237-.285.333-.617.212-.737-.12-.12-1.254 1.639-2.52 3.91m75.625-2.63c-1.282.447-1.362.523-.4.385 2.113-.303 4.153-.945 3-.944-.55 0-1.72.252-2.6.559m-4.579 1.196c-2.218.597-2.984.962-2.016.962.546 0 2.736-.639 4.195-1.225 1.258-.505.205-.378-2.179.263M45.476 110.81c-.146.545-.248 1.53-.227 2.19.031.957.11.836.393-.6.387-1.967.26-3.183-.166-1.59m264.557-.245c.092.091 4.487 2.367 9.767 5.058s10.078 5.227 10.662 5.635 1.231.742 1.438.742.702.36 1.1.8.863.8 1.033.8c1.056 0 9.574 5.801 13.667 9.308 1.265 1.084 2.293 1.818 2.285 1.632-.036-.843-13.126-10.54-14.226-10.54-.111 0-1.318-.759-2.681-1.687-3.661-2.493-24.35-13.04-23.045-11.748M208.6 114.4c-.88.407-1.33.741-1 .741s1.32-.334 2.2-.741 1.33-.741 1-.741-1.32.334-2.2.741m-34.732-.1c-1.064 1.775-1.878 3.424-1.752 3.549.085.085.645-.746 1.244-1.847.859-1.578 1.281-2.993.508-1.702m-129.195 1.053c-.15.392-.262 1.013-.248 1.38q.027.662.412-.299c.212-.531.324-1.152.248-1.38s-.261-.093-.412.299m42.019 1.447c-.157 1.21-.261 3.64-.231 5.4.052 3.128.061 3.096.397-1.4.379-5.076.281-7.447-.166-4m117.431-.655c-2.034.858-3.019 1.474-2.29 1.435.533-.028 5.242-2.311 4.767-2.311-.22 0-1.335.395-2.477.876m-181.055.155c-.099.165-.543.95-.986 1.745-1.293 2.317-1.861 3.286-2.19 3.735-.937 1.277-3.777 5.912-4.757 7.761-2.013 3.796-1.205 3.185.978-.741 1.162-2.09 3.052-5.208 4.2-6.929s2.087-3.297 2.087-3.5c0-.204.192-.371.427-.371s.34.315.234.7c-.339 1.227-.744 4.708-.523 4.491.23-.225 1.461-5.863 1.462-6.691 0-.545-.643-.683-.932-.2m146.615 5.8c-4.74 8.829-4.915 9.341-4.044 11.84.573 1.645 1.255 1.589 3.505-.286 1.021-.851 2.638-1.943 3.595-2.428.956-.485 1.654-.967 1.55-1.07-.264-.264-2.925 1.33-5.225 3.129-2.396 1.875-2.536 1.874-3.043-.007-.549-2.037-.238-2.961 3.164-9.423 1.58-3 2.786-5.455 2.679-5.455s-1.089 1.665-2.181 3.7m27.917-2.945c-2.895 1.523-4.891 2.446-5.338 2.468-.633.032-4.568 1.945-4.037 1.963.234.008 1.17-.346 2.081-.786.91-.44 1.898-.8 2.195-.8s.71-.151.919-.336 1.01-.583 1.78-.885c1.746-.685 4.739-2.371 4.2-2.365-.22.002-1.03.336-1.8.741m-153.718.795c-.155.742-.262 1.822-.238 2.4.029.692.166.437.403-.75.198-.99.305-2.07.238-2.4-.066-.33-.247.008-.403.75m219.518 2.918a316 316 0 0 0-8.2 2.071c-1.21.327-3.64.876-5.4 1.219-6.86 1.337-9.047 2.221-8.156 3.295.25.301.785.547 1.19.547 1.252 0 6.089 2.072 14.123 6.049.856.424 1.635.692 1.731.596s-.964-.712-2.357-1.37l-6.531-3.082c-2.2-1.038-4.855-2.143-5.9-2.455-2.699-.808-1.925-1.431 3.1-2.495 5.889-1.247 6.201-1.322 11.6-2.786 6.255-1.696 13.962-2.061 23-1.089.99.107.54-.056-1-.362-3.228-.642-14.726-.734-17.2-.138M21.597 128c-.691 5.486-.757 25.419-.095 28.8.237 1.21.646 3.64.908 5.4.925 6.219 2.035 12.378 2.268 12.588.129.116.11-.508-.043-1.388s-.448-2.725-.656-4.1a680 680 0 0 0-.816-5.2c-.24-1.485-.619-3.87-.841-5.3-.65-4.176-.869-25.588-.306-30 .266-2.09.411-4.16.322-4.6s-.422 1.27-.741 3.8m164.003-3.6c-.77.422-1.287.774-1.149.783.414.028 3.149-1.178 3.149-1.388 0-.349-.575-.175-2 .605m98.6-.605c.22.072 2.2.433 4.4.802s5.494 1.036 7.32 1.483 3.408.725 3.515.619c.277-.277-4.388-1.402-9.586-2.312-3.872-.678-6.862-.991-5.649-.592m-241.21 2.743c-.151 1.214-.195 2.444-.097 2.734.097.29.308-.616.467-2.014s.203-2.628.098-2.734-.316.801-.468 2.014m63.575 4.862c.001 3.96.061 5.526.133 3.48s.073-5.286 0-7.2c-.074-1.914-.133-.24-.133 3.72m71.895-3.56c-2.056.998-3.65 1.903-3.541 2.012.215.215 7.481-3.335 7.481-3.656 0-.278.159-.345-3.94 1.644m121.608-.838c.318.318 6.051 2.213 6.21 2.053.079-.079-1.194-.619-2.83-1.199-2.922-1.038-3.78-1.254-3.38-.854m83.578 1.598c.007.22.36 1.12.783 2s.657 1.15.52.6c-.282-1.133-1.324-3.212-1.303-2.6m-297.498 4.2c0 2.31.066 3.255.147 2.1a36 36 0 0 0 0-4.2c-.081-1.155-.147-.21-.147 2.1m228.852.724c3.74 1.923 7.61 4.015 8.6 4.647 4.231 2.7 10.303 6.832 11.578 7.877.757.622 1.464 1.043 1.571.937.94-.941-25.745-17.044-28.124-16.972-.234.007 2.635 1.587 6.375 3.511m-272.702.636c-.164 1.739-.272 4.349-.241 5.8.046 2.104.127 1.706.403-1.96.404-5.383.274-8.467-.162-3.84m342.914-1.36c0 .33.175.87.388 1.2.345.533.388.533.388 0 0-.33-.175-.87-.388-1.2-.345-.533-.388-.533-.388 0m-372.016 1.7c-.24.935-.536 1.97-.659 2.3-.334.899-1.761 6.373-2.137 8.2l-.785 3.8c-.25 1.21-.548 2.74-.662 3.4s-.363 1.56-.553 2-.455 1.43-.588 2.2-.428 2.3-.656 3.4c-.227 1.1-.476 2.99-.552 4.2s-.062 1.75.03 1.2c.093-.55.359-1.99.591-3.2.233-1.21.611-3.19.841-4.4s.565-2.56.744-3 .446-1.52.593-2.4c.543-3.257 2.006-9.71 2.97-13.1l.855-3c.733-2.57.873-3.3.634-3.3-.127 0-.427.765-.666 1.7m126.705 1.191c-3.607 10.031-4.127 11.696-3.544 11.335.244-.15.443-.677.443-1.17s.143-1.067.318-1.276.552-1.1.837-1.98 1.058-3.098 1.718-4.93c.661-1.831 1.12-3.41 1.022-3.509s-.456.59-.794 1.53m210.686-.469c.128.333.678.875 1.224 1.206 4.083 2.478 19.041 17.703 24.696 25.138 1.269 1.669 2.574 3.351 2.9 3.739s.593.785.593.883c0 .221 3.269 4.612 3.434 4.612.673 0-6.856-10.021-11.87-15.8-3.761-4.335-11.062-11.555-16.164-15.986a2329 2329 0 0 1-4.122-3.587c-.634-.556-.85-.62-.691-.205m35.425-.022c0 .33.175.87.388 1.2.345.533.388.533.388 0 0-.33-.175-.87-.388-1.2-.345-.533-.388-.533-.388 0M259.2 136.971c0 .193 2.395 1.43 2.761 1.426.132-.001-.301-.36-.961-.797-1.154-.764-1.8-.99-1.8-.629m127.604.462c.002.202.643 2.167 1.424 4.367.782 2.2 1.698 4.9 2.036 6s.778 2.413.976 2.919c.198.505.374 1.315.392 1.8.018.517.121.656.248.335.12-.301-.009-1.291-.285-2.2-.954-3.141-2.049-6.457-2.395-7.254-.191-.44-.742-1.97-1.225-3.4-.877-2.596-1.179-3.258-1.171-2.567M263.2 139.169c.55.447 1.18.821 1.4.831s.85.37 1.4.8 1.18.78 1.4.778c.628-.006-1.007-1.146-3.2-2.232-1.679-.831-1.84-.859-1-.177m-156.341 3.1c-.032 1.579.112 3.739.322 4.8.209 1.062.596 3.281.859 4.931.522 3.279 1.695 8.025 1.384 5.6a58 58 0 0 0-.589-3.4c-.625-3.052-1.272-7.63-1.611-11.4l-.306-3.4zm-20.412.164c.026 1.412.187 3.107.358 3.767.174.672.216-.384.097-2.4-.25-4.228-.523-5.047-.455-1.367M209 141.627c5.28.147 10.32.455 11.2.686 15.531 4.062 27.943 12.034 36.145 23.217 1.02 1.391 2.236 2.983 2.701 3.538 2.177 2.597 5.052 9.589 6.715 16.332.543 2.2.992 3.46.999 2.8.006-.66-.264-2.28-.6-3.6l-.933-3.653c-.177-.689-.615-1.842-.974-2.562s-.653-1.532-.653-1.806c0-.424-1.264-2.977-2.959-5.979-.675-1.195-5.018-7.001-6.418-8.578-6.146-6.928-10.185-10.236-15.523-12.714-.825-.383-1.5-.834-1.5-1.002s-.175-.306-.39-.306c-.214 0-1.569-.54-3.01-1.2s-2.762-1.2-2.935-1.2-1.024-.337-1.89-.749c-6.238-2.967-10.227-3.652-20.775-3.564l-8.8.073zM194 142l-1.4.295 1.6.029c.88.017 2.32-.119 3.2-.301l1.6-.331-1.8.007c-.99.003-2.43.139-3.2.301m-4 .8c-.497.321-.462.388.2.388.44 0 1.07-.175 1.4-.388.497-.321.462-.388-.2-.388-.44 0-1.07.175-1.4.388m-2.8.8c-.795.514.204.514 1.4 0l.8-.344-.8-.022c-.44-.012-1.07.153-1.4.366m83.2-.217c0 .105 1.647 1.291 3.66 2.635 2.013 1.345 3.878 2.655 4.144 2.913 1.472 1.425 3.709 3.376 4.484 3.913.488.338 3.278 2.879 6.2 5.647s5.416 5.095 5.543 5.171c.749.447-9.78-9.749-11.428-11.066a90 90 0 0 1-3.4-2.867c-2.046-1.855-9.203-6.789-9.203-6.346m-87 1.491c-7.161 2.898-11.688 5.283-13.77 7.255-.787.744-2.645 2.206-4.13 3.247-1.485 1.042-2.7 2.124-2.7 2.405s-1.239 1.798-2.754 3.371-2.985 3.442-3.267 4.154-1.118 2.051-1.857 2.976c-1.655 2.068-3.722 5.933-3.722 6.959 0 .417-.18.759-.4.759s-.4.302-.4.672c0 .937-.738 3.108-2.014 5.928-2.635 5.819-3.818 19.383-2.388 27.376.219 1.223.5 2.917.626 3.765.125.847.315 1.453.422 1.346s-.085-2.323-.426-4.924c-1.366-10.417-.472-21.354 2.236-27.363.733-1.626 1.063-2.508 1.573-4.2 1.1-3.653 3.162-7.947 4.609-9.6.578-.66 1.494-2.128 2.035-3.262s1.792-2.819 2.779-3.744 2.27-2.399 2.85-3.276 2.055-2.282 3.277-3.121 3.031-2.277 4.021-3.197c1.82-1.689 9.497-5.674 13.4-6.955 1.1-.361 2.27-.831 2.6-1.045 1.062-.686-.384-.423-2.6.474m154.022 2.761c.326.528 1.779 1.247 1.775.879-.002-.173-.452-.522-1.001-.777-.548-.254-.897-.3-.774-.102m-202.355 2.232c-.845 2.968-.566 3.247.346.346.386-1.227.612-2.321.503-2.431-.11-.109-.492.829-.849 2.085m-47.839-.234c.016.752.192 1.727.392 2.167.245.539.285.146.121-1.2-.29-2.381-.552-2.876-.513-.967m252.558-.455c.15.242 1.204 1.129 2.343 1.971 3.304 2.442 11.76 10.769 15.636 15.398 4.245 5.069 4.861 5.515 1.361.984-4.137-5.354-21.475-21.808-19.34-18.353M42.088 154.8c-.016 1.21.115 3.01.292 4l.32 1.8.007-1.6c.003-.88-.128-2.68-.292-4l-.297-2.4zm45.94-.767c.016.752.184 1.727.375 2.167.223.515.264.087.115-1.2-.274-2.378-.529-2.881-.49-.967m45.221 1.825A321 321 0 0 1 132.01 160a85 85 0 0 0-.755 2.6c-.241.88-.802 2.879-1.247 4.443-.444 1.564-.794 3.184-.776 3.6.04.962-.003 1.098 1.98-6.243.921-3.41 2.028-7.24 2.461-8.511s.722-2.504.643-2.741-.559.982-1.067 2.71m259.043-.692c.28 2.135 1.244 5.344 1.281 4.262.015-.424-.143-1.324-.35-2-.208-.675-.554-1.858-.77-2.628-.373-1.333-.381-1.316-.161.366m-303.486 3.067c.003.642.178 1.437.389 1.767.26.409.304.09.137-1-.303-1.977-.534-2.314-.526-.767m21.032 2.367c.332 1.984.564 2.304.556.767-.003-.642-.19-1.437-.415-1.767-.293-.43-.333-.146-.141 1m-20.206.68c-.033.694.791 3.955 1.546 6.12.327.937.382.98.251.2-.32-1.914-1.765-6.995-1.797-6.32m304.336 1.42c.191 1.381.219 1.409.351.351.079-.632-.014-1.306-.207-1.499-.202-.202-.263.288-.144 1.148m-351.093.5c-.01.77.136 1.76.325 2.2.457 1.064.457-.603 0-2.4l-.305-1.2zm67.559 0c.012.33.177.96.366 1.4l.344.8.022-.8c.012-.44-.153-1.07-.366-1.4-.345-.533-.385-.533-.366 0M201 165.194c-1.76.175-3.65.52-4.2.768-.909.409-.873.427.4.192.77-.142 4.64-.378 8.6-.524s6.01-.302 4.556-.348-3.434-.155-4.4-.244-3.196-.019-4.956.156m95-.036c0 .243.144.442.321.442.467 0 7.878 7.348 10.679 10.589 2.637 3.051 5.16 5.727 4.178 4.432-.859-1.134-5.439-6.45-7.378-8.563-2.436-2.655-7.8-7.4-7.8-6.9m98.64.708c.368 1.533.56 1.678.56.424 0-.573-.187-1.158-.416-1.3-.273-.169-.322.133-.144.876m-283.196.734c.329 1.471.558 1.79.55.767-.003-.422-.189-1.037-.412-1.367-.297-.438-.334-.276-.138.6M213.6 166c.33.213 1.05.378 1.6.366.916-.02.933-.051.2-.366-1.184-.509-2.587-.509-1.8 0m-207.635.633c-.019.202-.204 1.987-.411 3.967-.206 1.98-.443 5.31-.525 7.4l-.15 3.8.324-3c.719-6.666 1.157-12.173.982-12.348-.102-.102-.201-.02-.22.181m185.545 1.35c-11.554 5.85-17.716 13.8-21.561 27.817-1.438 5.239-.554 16.636 1.681 21.675 3.553 8.014 12.944 16.969 20.617 19.661 6.627 2.325 14.982 3.265 18.793 2.114.638-.193 2.15-.569 3.36-.837 8.277-1.831 14.876-6.305 20.075-13.613 1.92-2.699 5.111-8.623 5.12-9.505.003-.278.167-.818.366-1.2s.544-1.415.768-2.295c3.231-12.699.923-22.573-7.34-31.4-1.133-1.21-2.608-3.01-3.279-4-2.469-3.645-12.502-10.941-13.573-9.87-.103.103.8.64 2.008 1.193 4.035 1.848 9.296 6.186 11.616 9.579.859 1.255 2.332 3.087 3.275 4.071 3.617 3.775 6.559 8.868 7.549 13.068 1.654 7.019-.542 20.258-4.251 25.621-.404.584-.734 1.259-.734 1.5s-.18.438-.4.438-.4.193-.4.428c0 1.721-6.299 8.373-10.809 11.417-5.999 4.048-17.414 6.347-24.471 4.929-2.919-.586-10.09-2.862-10.253-3.254-.074-.176-.309-.32-.522-.32-1.86 0-11.691-9.052-14.532-13.381-3.869-5.894-4.809-9.472-4.783-18.219.046-15.913 8.412-28.892 23.069-35.792 1.595-.751 2.631-1.371 2.301-1.377s-1.99.692-3.69 1.552M43.668 168c-.006.55.143 1.36.332 1.8l.344.8-.012-.8c-.006-.44-.156-1.25-.332-1.8l-.32-1zm351.578.4c.019.33.178 1.05.354 1.6l.32 1 .034-1c.019-.55-.141-1.27-.354-1.6-.345-.533-.384-.533-.354 0m-283.212.4c.012.33.177.96.366 1.4l.344.8.022-.8c.012-.44-.153-1.07-.366-1.4-.345-.533-.385-.533-.366 0m-20.19 1.4c.329 1.471.558 1.79.55.767-.003-.422-.189-1.037-.412-1.367-.297-.438-.334-.276-.138.6m20.99 1.4c.012.33.177.96.366 1.4l.344.8.022-.8c.012-.44-.153-1.07-.366-1.4-.345-.533-.385-.533-.366 0m251.437 3.285c1.481 2.137 2.765 3.813 2.853 3.724.226-.226-2.586-4.209-4.634-6.563-.501-.575.301.702 1.781 2.839M44.434 172.2c-.012.44.153 1.07.366 1.4.514.795.514-.204 0-1.4l-.344-.8zm83.819 3.344c-.359 1.964-.626 4.445-.593 5.513.038 1.228.115 1.501.209.743.082-.66.429-3.061.771-5.336.769-5.124.5-5.765-.387-.92m267.815-2.744c.019 1.65.649 3.356.664 1.8.006-.66-.143-1.56-.332-2-.313-.727-.343-.709-.332.2m-302.84 1.876c.09 1.039.716 1.92.744 1.048.015-.482-.152-.988-.372-1.124s-.387-.102-.372.076m-48 .957c.016.532.191 1.327.391 1.767.252.558.288.315.119-.8-.283-1.857-.551-2.364-.51-.967M386.015 175c.002.22.371.85.821 1.4q.816.996.404.2c-.674-1.305-1.228-2.028-1.225-1.6m-361.181 1c.012.33.177.96.366 1.4l.344.8.022-.8c.012-.44-.153-1.07-.366-1.4-.345-.533-.385-.533-.366 0m69.194 1.476c.09 1.039.716 1.92.744 1.048.015-.482-.152-.988-.372-1.124s-.387-.102-.372.076m293.572.362c0 .131.339.716.754 1.3 1.502 2.117 3.451 5.562 5.918 10.462 1.384 2.75 2.52 4.79 2.523 4.533.007-.663-4.259-8.881-6.766-13.033-1.962-3.248-2.429-3.876-2.429-3.262m9.255 4.962c-.005 2.75.13 5.72.301 6.6.176.911.238-1.07.144-4.6-.204-7.659-.434-8.692-.445-2m-371.199-3.4c0 .44.155 1.16.344 1.6l.344.8v-.8c0-.44-.155-1.16-.344-1.6l-.344-.8zm20.39.2c-.019.55.141 1.27.354 1.6.494.764.494-.058 0-1.6l-.32-1zm321.791.6c.36.55.72 1 .8 1s-.059-.45-.31-1c-.25-.55-.611-1-.8-1s-.051.45.31 1m-251.028 1.833c.005.312.376 1.017.824 1.567l.815 1-.675-1.4c-.825-1.712-.976-1.894-.964-1.167m252.541.567c.324.66.881 1.56 1.239 2 .608.748.612.722.061-.4-.324-.66-.881-1.56-1.239-2-.608-.748-.612-.722-.061.4M4.256 183.845c-.141 1.027-.228 4.137-.195 6.911l.062 5.044.308-6.798c.317-7.004.269-8.399-.175-5.157m22.176-1.364c-.018.375.129 1.095.326 1.6s.575 1.729.839 2.719c.265.99.643 2.113.842 2.495s.361.969.361 1.305.171.923.381 1.305.762 1.865 1.226 3.295c.465 1.43.997 2.96 1.182 3.4s.638 1.61 1.007 2.6.943 2.43 1.278 3.2c.334.77.761 1.76.948 2.2 1.795 4.216 3.091 6.776 5.77 11.4 5.322 9.185 4.349 7.764 13.474 19.676 1.907 2.488 3.799 4.884 4.207 5.324s2.3 2.6 4.207 4.8 4.071 4.54 4.808 5.2 2.775 2.479 4.527 4.041 5.255 4.398 7.785 6.301 4.78 3.6 5 3.771c1.258.978 4.291 2.887 4.587 2.887.19 0 .406.15.48.334.567 1.422 26.322 14.803 27.644 14.362.239-.079-.634-.568-1.939-1.087-2.052-.816-8.346-3.787-10.772-5.087-.44-.236-1.34-.674-2-.975s-1.291-.636-1.402-.746c-.111-.111-1.371-.814-2.8-1.562-2.541-1.332-15.992-10.001-16.998-10.956-.28-.266-1.815-1.473-3.411-2.683-8.101-6.142-16.867-15.268-24.398-25.4-.981-1.32-2.064-2.67-2.407-3s-1.055-1.23-1.584-2-1.075-1.49-1.213-1.6c-.33-.263-4.387-6.311-4.387-6.541 0-.098-.692-1.321-1.537-2.718-2.187-3.614-3.616-6.183-4.973-8.941-.65-1.32-1.341-2.713-1.536-3.095s-.354-.967-.354-1.3-.18-.605-.4-.605-.4-.272-.4-.604c0-.333-.378-1.458-.84-2.5a219 219 0 0 1-1.176-2.696c-.533-1.269-3.14-8.893-4.24-12.4-1.666-5.314-2.079-6.432-2.112-5.719m20.374.352c.003.532.183 1.237.4 1.567.276.422.317.185.136-.8-.317-1.725-.544-2.051-.536-.767m49.044-.033c.375 1.505 1.284 3.484 1.288 2.8.001-.33-.344-1.32-.767-2.2s-.657-1.15-.521-.6m217.165.5c1.79 2.144 4.188 4.7 4.408 4.7.334 0-4.791-5.926-5.159-5.965-.184-.019.153.55.751 1.265m-185.956 4.16c-.143 1.684-.259 4.294-.259 5.8 0 4.67-2.373 2.735-6.688-5.456-.929-1.762-1.694-2.99-1.7-2.729-.033 1.335 5.527 10.131 7.023 11.111 1.675 1.098 1.805.727 1.982-5.694.184-6.65.046-7.817-.358-3.032m159.341-1.691c0 1.451.678 5.09 1.199 6.431 3.079 7.941 4.433 33.432 2.571 48.4-.603 4.845-.815 5.958-2.17 11.4-.411 1.65-.95 3.9-1.199 5-.547 2.421-.915 3.879-2.426 9.6-.572 2.165-2.064 7.183-2.378 8-.418 1.085-4.018 8.3-4.391 8.8-.164.22-.848 1.84-1.52 3.6-2.061 5.396-5.344 11.879-6.986 13.793-.385.449-.7.902-.7 1.007 0 .599-9.155 12.043-12.924 16.155a1820 1820 0 0 0-6.017 6.606c-4.719 5.21-13.97 12.884-21.259 17.633-9.561 6.231-11.82 7.576-17.6 10.482-6.964 3.502-11.74 5.644-15.4 6.908-1.43.494-4.22 1.496-6.2 2.226-3.12 1.151-9.264 2.814-15.4 4.169-15.79 3.486-41.944 3.338-56.264-.317a100 100 0 0 0-3.636-.827l-4.2-.871c-6.112-1.271-17.335-5.243-23.178-8.204-1.101-.557-2.063-.953-2.137-.878-.369.368 10.426 10.718 11.178 10.718.15 0 1.57.865 3.155 1.923 3.425 2.286 5.599 3.553 10.004 5.833a613 613 0 0 1 7.078 3.74c2.09 1.123 5.06 2.523 6.6 3.11s3.16 1.221 3.6 1.409c3.074 1.313 13.602 4.43 20.8 6.157 2.42.58 5.03 1.233 5.8 1.451 12.331 3.482 32.567 5.618 45.503 4.804 25.43-1.601 42.839-6.767 64.497-19.14 5.714-3.264 10.717-6.387 11.649-7.271.356-.339 1.435-1.246 2.396-2.016 6.369-5.102 16.418-15.001 19.051-18.767 1.013-1.448 2.53-3.55 3.373-4.67.842-1.12 1.531-2.189 1.531-2.374s.338-.709.752-1.163c3.748-4.119 10.312-15.793 13.508-24.026 6.832-17.6 8.18-25.169 8.263-46.4.084-21.301-.719-26.115-7.037-42.2-4.379-11.149-12.395-23.884-20.131-31.984-2.005-2.099-4.79-5.121-6.188-6.716-2.891-3.297-3.167-3.431-3.167-1.531m-238.742.431c.001.44.348 1.52.771 2.4.792 1.647.653.678-.258-1.8-.313-.852-.514-1.087-.513-.6m323.551-.38c.005.209.361.83.791 1.38s.79 1.18.8 1.4.392.85.85 1.4c.532.639.369.134-.453-1.4-1.349-2.52-2.003-3.435-1.988-2.78m-273.181 2.831c-.04.643 1.182 3.473 1.404 3.251.102-.102-.166-.977-.595-1.944s-.793-1.555-.809-1.307m101.895.684c-2.39 1.132-8.323 6.731-8.323 7.854 0 .226-.16.411-.355.411s-.487.585-.648 1.3c-.635 2.803-.172 9.5.656 9.5.191 0 .347.272.347.605 0 4.898 14.378 12.857 17.82 9.865.209-.182 1.165-.578 2.124-.879 3.333-1.047 7.651-6.272 7.658-9.266.001-.509.197-1.627.436-2.485.431-1.553.294-2.558-.916-6.706-.605-2.072-3.004-4.514-9.543-9.712-.978-.778-2.029-1.416-2.335-1.418s.144.468 1 1.045c1.815 1.225 8.132 6.475 8.843 7.351 3.367 4.145 3.07 13.343-.563 17.41-8.83 9.885-25.124 2.334-25.124-11.642v-4.032l1.705-2.258c1.322-1.75 6.104-6.278 6.631-6.278.052 0 1.078-.354 2.279-.786 1.423-.511 1.836-.782 1.185-.777-.55.005-1.845.409-2.877.898m67.068 8.441c.005 4.606.123 7.846.262 7.2.333-1.55.326-12.839-.009-14.376-.144-.66-.258 2.569-.253 7.176m-217.775-7.122c-.009.25.247 1.06.568 1.8.322.74.592 1.142.6.892s-.247-1.06-.568-1.8c-.322-.74-.592-1.142-.6-.892m270.391.344c.326.44.781 1.001 1.012 1.248.23.246 1.203 1.687 2.163 3.201s2.412 3.743 3.227 4.953c.816 1.21 1.791 2.802 2.166 3.537.376.736.783 1.239.903 1.118.121-.121-.757-1.712-1.95-3.537a1421 1421 0 0 1-4.273-6.578c-1.157-1.793-2.494-3.593-2.972-4-.855-.728-.86-.727-.276.058m54.793.298c0 .417 1.74 3.497 1.891 3.346.082-.081-.24-.844-.714-1.695-.926-1.66-1.177-2.012-1.177-1.651m23.469 2.304c.205 2.421.177 2.545-.411 1.8-.754-.953-.835-.626-.194.781 1.009 2.215 1.64-1.444.72-4.181-.212-.633-.255-.045-.115 1.6m-298.237-.895c-.017.278.14.818.35 1.2s1.278 2.538 2.374 4.791c1.876 3.856 3.244 6.222 3.244 5.611 0-.15-.505-1.135-1.123-2.189s-1.618-2.998-2.224-4.318c-2.326-5.074-2.589-5.585-2.621-5.095M50.4 194.131c0 .625 3.717 9.486 3.901 9.301.112-.112-.075-.795-.416-1.518s-1.191-2.754-1.888-4.514c-1.211-3.059-1.597-3.849-1.597-3.269M3.753 201.8c0 2.64.065 3.668.144 2.284.078-1.383.077-3.543-.002-4.8s-.143-.124-.142 2.516m376.108 1.4c.456 1.802 1.391 4.003 1.123 2.644-.125-.636-.486-1.716-.802-2.4-.431-.936-.511-.996-.321-.244m-273.228 3.492c.614 1.151 1.181 2.027 1.261 1.947.173-.173-1.396-3.068-1.973-3.639-.222-.22.098.542.712 1.692m222.567-.941c0 .467 1.277 3.106 1.429 2.954.209-.21-.941-3.105-1.234-3.105-.107 0-.195.068-.195.151m-63.146 3.649c-2.887 16.928-12.618 32.427-27.433 43.695-4.667 3.549-14.224 8.542-18.449 9.637-9.117 2.365-12.996 2.491-24.572.797-11.019-1.612-19.231-6.29-31.826-18.129-.727-.683-4.708-6.203-7.645-10.6-4.715-7.059-6.531-10.815-8.317-17.2-.396-1.416-.554-1.701-.442-.8.239 1.937.623 3.636 1.06 4.7.204.495.527 1.305.719 1.8 1.397 3.599 7.027 12.86 11.368 18.7 1.786 2.401 6.289 6.986 9.039 9.2.956.77 1.942 1.593 2.191 1.828 3.143 2.969 13.3 8.972 15.181 8.972.344 0 .724.16.845.356s.806.458 1.523.583 2.204.401 3.304.612c1.1.212 3.08.588 4.4.837 8.518 1.602 19.86.627 26.6-2.287 4.827-2.087 12.831-6.384 13.6-7.301.11-.131.83-.674 1.6-1.206s1.632-1.192 1.915-1.467c.283-.274 1.003-.804 1.6-1.176 3.194-1.991 13.919-14.779 16.242-19.365.951-1.878 1.932-3.768 2.18-4.2.568-.99 2.584-5.596 3.146-7.186 1.341-3.794 3.056-11.597 2.858-13.003-.079-.557-.382.416-.687 2.203M4.047 211.033c.026 2.402.183 4.907.349 5.567s.209-1.23.097-4.2c-.248-6.561-.511-7.367-.446-1.367m377.184-3.333c.041.658 1.498 4.6 1.538 4.162.046-.507-1.199-4.662-1.397-4.662-.095 0-.158.225-.141.5m-271.829 4.211c.83 1.601 1.581 2.84 1.668 2.752.185-.184-2.18-4.665-2.777-5.263-.22-.22.28.91 1.109 2.511m-51.778-1.783c-.013.18.516 1.113 1.176 2.072s1.2 1.86 1.2 2.002c0 .204 2.294 3.671 4.49 6.786 2.508 3.558 1.339 1.293-1.776-3.442-2.263-3.44-4.328-6.59-4.59-7-.263-.41-.488-.598-.5-.418M382.88 213c0 .44.144 1.25.32 1.8.254.792.32.833.32.2 0-.44-.144-1.25-.32-1.8-.254-.792-.32-.833-.32-.2m-50.48-.045c0 .159.518 1.314 1.151 2.567 1.606 3.179 1.845 3.772 3.303 8.173.709 2.142 1.367 3.817 1.462 3.723.315-.316-3.072-9.688-4.362-12.07-1.395-2.576-1.554-2.82-1.554-2.393M112.442 217.5c1.611 2.848 4.501 7.168 6.81 10.181a163 163 0 0 1 3.748 5.17c3.026 4.371 7.591 9.789 11.181 13.271 6.438 6.244 14.219 13.305 14.219 12.903 0-.326-.811-1.11-5.811-5.625-9.177-8.285-14.597-14.304-21.447-23.819a240 240 0 0 0-3.502-4.723c-.903-1.178-2.638-3.833-3.854-5.9s-2.309-3.758-2.428-3.758.369 1.035 1.084 2.3m271.399-.1c.345 1.806.926 5.265 1.412 8.4.239 1.54.57 7.03.736 12.2l.301 9.4-.077-9.4c-.077-9.481-.784-16.41-2.06-20.197-.355-1.052-.462-1.191-.312-.403M5.016 220.8c.09 1.43.335 3.59.545 4.8l.797 4.6c.93 5.367 1.815 9.49 3.695 17.2 1.188 4.873 5.471 16.745 7.938 22 .619 1.32 1.525 3.3 2.013 4.4l1.684 3.8c2.413 5.447 3.367 7.279 5.211 10 1.118 1.65 2.141 3.09 2.273 3.2.131.11 1.045 1.19 2.03 2.4s3.436 3.91 5.448 6 4.534 4.779 5.604 5.975c3.541 3.957 5.98 6.185 10.789 9.854 5.633 4.298 8.343 6.171 8.929 6.171.235 0 .428.15.428.332s.495.588 1.1.9 1.449.883 1.875 1.268c.706.637 1.425.918 1.425.556 0-.205-4.38-3.142-5.7-3.824-.605-.312-1.1-.717-1.1-.9 0-.182-.236-.332-.525-.332-.288 0-.873-.316-1.3-.701-.426-.386-2.575-2.049-4.775-3.696-4.998-3.741-11.242-9.937-20.36-20.203-3.548-3.996-7.523-9.556-8.721-12.2-5.224-11.53-8.92-20.06-9.532-22-.174-.55-.888-2.53-1.587-4.4-1.126-3.013-2.842-9.141-4.032-14.4-.224-.99-.581-2.52-.794-3.4a90 90 0 0 1-.796-3.8l-.745-4c-.36-1.93-1.1-6.427-1.645-10l-.336-2.2zm62.076 3.7c4.342 5.572 6.321 7.9 6.716 7.9.147 0-.516-.873-1.471-1.94s-2.457-2.948-3.337-4.181c-.88-1.232-1.757-2.249-1.949-2.26s-.174.206.041.481m271.338 3.515c-.017.119.324 1.199.756 2.4.432 1.202.778 1.825.77 1.385-.014-.723-1.456-4.298-1.526-3.785M75.6 234.6c1.678 1.71 2 1.978 2 1.664 0-.252-3.259-3.464-3.514-3.464-.139 0 .542.81 1.514 1.8m264.468-1.4c.02 1.039.65 2.746.664 1.8.006-.44-.143-1.16-.332-1.6-.211-.49-.339-.568-.332-.2m.788 3.6c0 .55.155 1.36.344 1.8.313.729.344.712.344-.2 0-.55-.155-1.36-.344-1.8-.313-.729-.344-.712-.344.2M78 236.56c0 .627 10.5 9.79 14.37 12.541 6.733 4.785 11.888 7.974 12.271 7.591.106-.106-.566-.589-1.495-1.073-5.599-2.919-17.249-11.686-23.046-17.342-1.155-1.127-2.1-1.9-2.1-1.717m263.687 4.64c.004.55.145 1.54.313 2.2l.305 1.2.008-1.2c.004-.66-.137-1.65-.313-2.2l-.32-1zm.793 5.6c0 .77.144 1.85.32 2.4.29.905.32.867.32-.4 0-.77-.144-1.85-.32-2.4-.29-.905-.32-.867-.32.4m42.965 4.6c-.155 1.32-.473 3.308-.708 4.418-.235 1.109-.351 2.369-.259 2.8.093.43.494-1.316.892-3.88.397-2.563.64-4.903.539-5.2-.101-.296-.31.542-.464 1.862m-42.05 12.8c.001 7.714.107 11.538.256 9.2.324-5.078.32-15.493-.006-19.4-.138-1.65-.25 2.94-.25 10.2m-238.162-7.239c.861.83 13.128 6.639 14.021 6.639.322 0 .757.158.966.351.727.671 8.847 3.414 8.18 2.763-.235-.229-8.979-3.514-9.354-3.514-.345 0-3.519-1.432-6.446-2.908-1.32-.666-3.12-1.551-4-1.966a54 54 0 0 1-2.295-1.141c-.692-.384-1.388-.53-1.072-.224m157.36 2.339c-3.642 3.362-8.899 7.561-11.7 9.345-2.067 1.316-8.531 6.183-11.207 8.437-.576.485-2.766 1.766-4.867 2.846-3.785 1.946-6.062 2.87-13.019 5.279-1.98.686-3.96 1.396-4.4 1.579s-1.43.55-2.2.814-1.76.622-2.2.795c-.44.172-1.61.527-2.6.787-.99.259-2.353.64-3.028.845-.676.205-1.743.373-2.372.373s-1.696.169-2.372.375c-13.918 4.254-35.823 5.09-53.828 2.056-4.911-.828-8.435-1.542-11.8-2.391-6.448-1.626-7.244-1.798-6.972-1.5.26.284 7.159 2.139 10.172 2.735 1.1.217 2.81.56 3.8.762 1.782.363 4.943.903 9.2 1.573 8.863 1.394 30.348 1.485 36.475.154 1.609-.35 3.915-.784 5.125-.966s2.92-.541 3.8-.798c1.549-.452 3.422-.843 7.6-1.588 3.496-.623 8.063-1.865 10.4-2.829.44-.182 1.52-.547 2.4-.812s1.96-.619 2.4-.786 1.43-.521 2.2-.785c7.782-2.672 18.101-8.527 22.3-12.652.276-.27 1.895-1.359 3.598-2.42 1.704-1.06 3.414-2.243 3.8-2.628s.846-.7 1.022-.7c.175 0 2.56-1.962 5.3-4.36 5.211-4.561 5.546-4.764 4.876-2.953-.226.612-.984 3.003-1.684 5.313s-1.421 4.56-1.602 5a50 50 0 0 0-.81 2.2c-1.067 3.108-3.473 8.116-5.573 11.6-.862 1.43-2.147 3.59-2.855 4.8-1.19 2.034-4.902 7.677-5.657 8.6-.18.22-1.251 1.66-2.38 3.2-6.585 8.978-12.606 15.041-21.454 21.601l-4.081 3.026c-12.329 9.141-18.708 12.4-35.2 17.984-4.772 1.616-11.959 3.435-16 4.049-1.21.184-3.37.537-4.8.785-3.769.654-24.936.921-29.8.376-14.134-1.583-21.42-3.053-26.8-5.405-.66-.289-2.19-.883-3.4-1.32-8.648-3.124-15.683-6.232-20.9-9.233l-3-1.725c-.825-.474-2.67-1.498-4.1-2.275a155 155 0 0 1-4.781-2.724c-1.199-.721-2.264-1.227-2.366-1.125-.241.241-.368.155 3.347 2.269l4.8 2.733c.88.502 2.95 1.634 4.6 2.516s3.09 1.708 3.2 1.836c.406.472 2.008 1.232 2.595 1.232.333 0 .605.18.605.4s.252.4.559.4 1.523.504 2.7 1.12c2.321 1.214 5.275 2.398 14.541 5.827 8.229 3.045 10.912 3.757 17.6 4.672 1.76.24 4.37.598 5.8.795 9.081 1.248 28.057 1.506 33.4.452 1.1-.217 3.35-.613 5-.881 3.173-.514 8.725-1.711 11.4-2.456 2.069-.577 12.157-3.888 13.2-4.332.44-.188 1.52-.554 2.4-.815 4.884-1.446 19.287-9.613 24.8-14.063.427-.344 4.013-3.063 6.224-4.719 5.235-3.919 11.188-9.371 13.976-12.8.984-1.21 1.881-2.29 1.995-2.4 1.965-1.913 8.221-10.596 12.322-17.102 5.591-8.871 8.059-14.229 10.914-23.698.232-.77.571-1.76.754-2.2 2.882-6.938 2.596-7.781-1.392-4.1m-112.766.948a46 46 0 0 0 2.784 2.352c1.31 1.01 5.398 4.199 6.789 5.297 6.024 4.755 6.044 4.716-2.3 4.64-3.795-.035-6.54.002-6.1.082 2.376.431 13.8.379 13.8-.063 0-.469-3.734-3.867-7.2-6.551-.99-.767-2.07-1.61-2.4-1.875-5.246-4.203-7.282-5.675-5.373-3.882m234.002.381c-.148.586-.178 1.155-.068 1.265s.32-.279.468-.865c.147-.587.177-1.156.067-1.266s-.32.279-.467.866m-.756 2.324c-.15.392-.262 1.013-.248 1.38q.027.662.412-.299c.212-.531.324-1.152.248-1.38s-.261-.093-.412.299m-1.227 4.093c-.836 2.455-.571 2.72.339.339.385-1.009.611-1.922.502-2.031s-.487.653-.841 1.692m-253.046-.092c0 .229 3.866 1.451 4.475 1.415.289-.017-.375-.363-1.475-.769-1.969-.727-3-.949-3-.646m5.2 1.609c0 .292 4.412 1.558 4.639 1.332.121-.122-.766-.508-1.971-.858-2.316-.673-2.668-.736-2.668-.474m246.513 2.158c-4.146 9.65-7.242 16.18-8.63 18.202-.423.618-.677 1.216-.563 1.33.264.264 2.568-3.86 4.61-8.253 2.993-6.438 5.382-12.022 5.214-12.189-.092-.092-.376.317-.631.91M140 270.4c.33.213.96.378 1.4.366l.8-.022-.8-.344c-1.196-.514-2.195-.514-1.4 0m2.8.8c.33.213.96.378 1.4.366l.8-.022-.8-.344c-1.196-.514-2.195-.514-1.4 0m3.4.8c.66.168 1.83.305 2.6.305h1.4L149 272c-.66-.168-1.83-.305-2.6-.305H145zm196.503 7.6c-.163 1.21-.277 3.01-.255 4l.041 1.8.375-1.958c.205-1.076.32-2.876.255-4L343 277.4zM118 284.949c0 .286 11.246 3.938 11.463 3.722.095-.096-2.219-.96-5.145-1.92-6.252-2.052-6.318-2.071-6.318-1.802m223.788 2.789c-.149.997-.189 2.048-.088 2.337.1.289.318-.432.482-1.601.165-1.169.205-2.22.089-2.336s-.333.604-.483 1.6m-.721 4.462c-.168.88-.845 4.097-1.503 7.149-.659 3.052-1.129 5.752-1.046 6 .084.248.458-.989.831-2.749.749-3.539 1.299-5.964 1.915-8.441.224-.903.34-2.073.258-2.6-.116-.751-.215-.612-.455.641m29.119-.1-.634 1.3.815-1c.785-.963 1.041-1.6.643-1.6-.104 0-.475.585-.824 1.3m-2.004 3.382c-6.683 11.499-14.95 22.508-24.408 32.507a704 704 0 0 0-5.4 5.773c-1.196 1.299-3.053 3.189-4.126 4.2a759 759 0 0 0-5.8 5.563c-2.117 2.049-4.838 4.479-6.048 5.4s-2.26 1.81-2.333 1.975c-.144.323-1.267.423-1.267.112 0-.234.803-1.627 4.155-7.212 1.452-2.42 2.642-4.553 2.643-4.74.002-.403.599-1.737 3.517-7.86 4.287-8.999 5.285-11.188 5.285-11.597 0-.228.159-.726.353-1.108.825-1.621 1.625-3.879 2.442-6.895.269-.99.65-2.213.847-2.719s.349-1.405.339-2c-.023-1.273-.444-.105-1.995 5.519-1.233 4.476-3.044 8.964-6.373 15.8-2.579 5.296-3.184 6.601-5.122 11.057-.445 1.022-1.907 3.605-3.25 5.742s-2.441 4.012-2.441 4.167-.32.632-.711 1.059c-1.44 1.57-2.493 3.325-2.13 3.549.205.127.433.09.507-.082.074-.173 1.405-1.145 2.958-2.161 4.925-3.222 13.307-11.268 24.776-23.782 7.518-8.202 12.894-14.804 16.246-19.949 6.985-10.722 8.877-13.81 8.621-14.067-.093-.093-.671.694-1.285 1.749M96.373 360.745c1.225.409 3.577 1.15 5.227 1.647s3.36 1.051 3.8 1.231 1.43.419 2.2.53 2.3.404 3.4.651c1.1.246 2.72.546 3.6.667.88.12 1.78.358 2 .528s1.001.437 1.736.595c1.122.24 1.299.424 1.106 1.146-.127.473-.234 1.06-.237 1.304s-.433 1.075-.956 1.846-1.166 2.053-1.429 2.85-.617 1.535-.787 1.639c-.469.29-3.233-.563-3.233-.998 0-.209-.315-.382-.7-.383-.978-.002-9.986-4.615-11.777-6.03-.812-.643-1.667-1.168-1.9-1.168s-.423-.18-.423-.4-.27-.4-.599-.4c-.651 0-5.801-4.984-5.801-5.614 0-.623 2.371-.445 4.773.359"/></g></svg>